<mxfile modified="2023-06-01T10:33:34.590Z" host="app.diagrams.net" agent="Mozilla/5.0 (Windows NT 10.0; Win64; x64) AppleWebKit/537.36 (KHTML, like Gecko) Chrome/114.0.0.0 Safari/537.36" etag="6oVZ8fUK1a5uvUhHkyZ5" version="21.3.6" type="device">
  <diagram id="b_TIV87pcosbFDb4-95I" name="Page-1">
    <mxGraphModel dx="1912" dy="1075" grid="1" gridSize="10" guides="1" tooltips="1" connect="1" arrows="1" fold="1" page="1" pageScale="1" pageWidth="3300" pageHeight="2339" math="0" shadow="0">
      <root>
        <mxCell id="0" />
        <mxCell id="1" parent="0" />
        <mxCell id="flblZkYbyNQ9tiGkdh4v-29" value="" style="group;strokeWidth=1;align=left;fontSize=11;" parent="1" vertex="1" connectable="0">
          <mxGeometry x="2560" y="2080" width="700" height="220" as="geometry" />
        </mxCell>
        <mxCell id="U5MXIK-24vMOK5HsXXuc-69" style="vsdxID=8;edgeStyle=none;startArrow=none;endArrow=none;startSize=5;endSize=5;strokeColor=#000000;spacingTop=0;spacingBottom=0;spacingLeft=0;spacingRight=0;verticalAlign=middle;html=1;labelBackgroundColor=#ffffff;rounded=0;strokeWidth=1;" parent="flblZkYbyNQ9tiGkdh4v-29" edge="1">
          <mxGeometry relative="1" as="geometry">
            <mxPoint as="offset" />
            <Array as="points" />
            <mxPoint as="sourcePoint" />
            <mxPoint x="700" as="targetPoint" />
          </mxGeometry>
        </mxCell>
        <mxCell id="U5MXIK-24vMOK5HsXXuc-68" style="vsdxID=6;edgeStyle=none;startArrow=none;endArrow=none;startSize=5;endSize=5;strokeColor=#000000;spacingTop=0;spacingBottom=0;spacingLeft=0;spacingRight=0;verticalAlign=middle;html=1;labelBackgroundColor=#ffffff;rounded=0;strokeWidth=1;" parent="flblZkYbyNQ9tiGkdh4v-29" edge="1">
          <mxGeometry relative="1" as="geometry">
            <mxPoint x="10" as="offset" />
            <Array as="points" />
            <mxPoint y="220" as="sourcePoint" />
            <mxPoint as="targetPoint" />
          </mxGeometry>
        </mxCell>
        <mxCell id="U5MXIK-24vMOK5HsXXuc-2" value="&lt;p style=&quot;margin-left: 0 ; margin-right: 0 ; margin-top: 0px ; margin-bottom: 0px ; text-indent: 0 ; direction: ltr&quot;&gt;&lt;font style=&quot;font-family: &amp;quot;times new roman&amp;quot; ; color: rgb(0 , 0 , 0) ; direction: ltr ; letter-spacing: 0px ; line-height: 140% ; opacity: 1&quot; size=&quot;1&quot;&gt;&lt;i&gt;Разраб.&lt;/i&gt;&lt;/font&gt;&lt;/p&gt;" style="verticalAlign=middle;align=left;vsdxID=41;fillColor=none;gradientColor=none;shape=stencil(nZBLDoAgDERP0z3SIyjew0SURgSD+Lu9kMZoXLhwN9O+tukAlrNpJg1SzDH4QW/URgNYgZTkjA4UkwJUgGXng+6DX1zLfmoymdXo17xh5zmRJ6Q42BWCfc2oJfdAr+Yv+AP9Cb7OJ3H/2JG1HNGz/84klThPVCc=);strokeColor=none;labelBackgroundColor=none;rounded=0;html=1;whiteSpace=wrap;strokeWidth=1;" parent="flblZkYbyNQ9tiGkdh4v-29" vertex="1">
          <mxGeometry y="100" width="70" height="20" as="geometry" />
        </mxCell>
        <mxCell id="U5MXIK-24vMOK5HsXXuc-4" value="&lt;p style=&quot;margin-left: 0 ; margin-right: 0 ; margin-top: 0px ; margin-bottom: 0px ; text-indent: 0 ; direction: ltr&quot;&gt;&lt;font style=&quot;font-family: &amp;#34;times new roman&amp;#34; ; color: rgb(0 , 0 , 0) ; direction: ltr ; letter-spacing: 0px ; line-height: 140% ; opacity: 1&quot; size=&quot;1&quot;&gt;&lt;i&gt;Подп.&lt;/i&gt;&lt;/font&gt;&lt;font style=&quot;font-size: 12px ; font-family: &amp;#34;times new roman&amp;#34; ; color: #000000 ; direction: ltr ; letter-spacing: 0px ; line-height: 140% ; opacity: 1&quot;&gt;&lt;br&gt;&lt;/font&gt;&lt;/p&gt;" style="verticalAlign=middle;align=center;vsdxID=45;fillColor=none;gradientColor=none;shape=stencil(nZBLDoAgDERP0z3SIyjew0SURgSD+Lu9kMZoXLhwN9O+tukAlrNpJg1SzDH4QW/URgNYgZTkjA4UkwJUgGXng+6DX1zLfmoymdXo17xh5zmRJ6Q42BWCfc2oJfdAr+Yv+AP9Cb7OJ3H/2JG1HNGz/84klThPVCc=);strokeColor=none;labelBackgroundColor=none;rounded=0;html=1;whiteSpace=wrap;strokeWidth=1;" parent="flblZkYbyNQ9tiGkdh4v-29" vertex="1">
          <mxGeometry x="160" y="80" width="60" height="20" as="geometry" />
        </mxCell>
        <mxCell id="U5MXIK-24vMOK5HsXXuc-5" value="&lt;p style=&quot;margin-left: 0 ; margin-right: 0 ; margin-top: 0px ; margin-bottom: 0px ; text-indent: 0 ; direction: ltr&quot;&gt;&lt;font style=&quot;font-family: &amp;#34;times new roman&amp;#34; ; color: rgb(0 , 0 , 0) ; direction: ltr ; letter-spacing: 0px ; line-height: 140% ; opacity: 1&quot; size=&quot;1&quot;&gt;&lt;i&gt;Литера&lt;/i&gt;&lt;/font&gt;&lt;font style=&quot;font-size: 12px ; font-family: &amp;#34;times new roman&amp;#34; ; color: #000000 ; direction: ltr ; letter-spacing: 0px ; line-height: 140% ; opacity: 1&quot;&gt;&lt;br&gt;&lt;/font&gt;&lt;/p&gt;" style="verticalAlign=middle;align=center;vsdxID=46;fillColor=none;gradientColor=none;shape=stencil(nZBLDoAgDERP0z3SIyjew0SURgSD+Lu9kMZoXLhwN9O+tukAlrNpJg1SzDH4QW/URgNYgZTkjA4UkwJUgGXng+6DX1zLfmoymdXo17xh5zmRJ6Q42BWCfc2oJfdAr+Yv+AP9Cb7OJ3H/2JG1HNGz/84klThPVCc=);strokeColor=none;labelBackgroundColor=none;rounded=0;html=1;whiteSpace=wrap;strokeWidth=1;" parent="flblZkYbyNQ9tiGkdh4v-29" vertex="1">
          <mxGeometry x="500" y="60" width="60" height="20" as="geometry" />
        </mxCell>
        <mxCell id="U5MXIK-24vMOK5HsXXuc-7" style="vsdxID=48;edgeStyle=none;startArrow=none;endArrow=none;startSize=5;endSize=5;strokeColor=#000000;spacingTop=0;spacingBottom=0;spacingLeft=0;spacingRight=0;verticalAlign=middle;html=1;labelBackgroundColor=#ffffff;rounded=0;strokeWidth=1;" parent="flblZkYbyNQ9tiGkdh4v-29" edge="1">
          <mxGeometry relative="1" as="geometry">
            <mxPoint x="10" as="offset" />
            <Array as="points">
              <mxPoint x="580" y="150" />
            </Array>
            <mxPoint x="580" y="160" as="sourcePoint" />
            <mxPoint x="580" y="140" as="targetPoint" />
          </mxGeometry>
        </mxCell>
        <mxCell id="U5MXIK-24vMOK5HsXXuc-9" value="&lt;p style=&quot;margin-left: 0 ; margin-right: 0 ; margin-top: 0px ; margin-bottom: 0px ; text-indent: 0 ; direction: ltr&quot;&gt;&lt;font style=&quot;font-family: &amp;quot;times new roman&amp;quot; ; color: rgb(0 , 0 , 0) ; direction: ltr ; letter-spacing: 0px ; line-height: 140% ; opacity: 1&quot; size=&quot;1&quot;&gt;&lt;i style=&quot;font-size: 14px&quot;&gt;ГУИР 151004 009 СП&lt;/i&gt;&lt;/font&gt;&lt;font style=&quot;font-size: 19px ; font-family: &amp;quot;times new roman&amp;quot; ; color: #000000 ; direction: ltr ; letter-spacing: 0px ; line-height: 140% ; opacity: 1&quot;&gt;&lt;br&gt;&lt;/font&gt;&lt;/p&gt;" style="verticalAlign=middle;align=center;vsdxID=50;fillColor=none;gradientColor=none;shape=stencil(nZBLDoAgDERP0z3SIyjew0SURgSD+Lu9kMZoXLhwN9O+tukAlrNpJg1SzDH4QW/URgNYgZTkjA4UkwJUgGXng+6DX1zLfmoymdXo17xh5zmRJ6Q42BWCfc2oJfdAr+Yv+AP9Cb7OJ3H/2JG1HNGz/84klThPVCc=);strokeColor=none;labelBackgroundColor=none;rounded=0;html=1;whiteSpace=wrap;strokeWidth=1;" parent="flblZkYbyNQ9tiGkdh4v-29" vertex="1">
          <mxGeometry x="260" width="440" height="60" as="geometry" />
        </mxCell>
        <mxCell id="U5MXIK-24vMOK5HsXXuc-14" value="&lt;p style=&quot;margin: 0px ; direction: ltr&quot;&gt;&lt;font face=&quot;times new roman&quot;&gt;Прослушивание клиентов сервером.&lt;/font&gt;&lt;/p&gt;&lt;p style=&quot;margin: 0px ; direction: ltr&quot;&gt;&lt;font face=&quot;times new roman&quot;&gt;Схема алгоритма.&lt;/font&gt;&lt;/p&gt;" style="verticalAlign=middle;align=center;vsdxID=51;fillColor=none;gradientColor=none;shape=stencil(nZBLDoAgDERP0z3SIyjew0SURgSD+Lu9kMZoXLhwN9O+tukAlrNpJg1SzDH4QW/URgNYgZTkjA4UkwJUgGXng+6DX1zLfmoymdXo17xh5zmRJ6Q42BWCfc2oJfdAr+Yv+AP9Cb7OJ3H/2JG1HNGz/84klThPVCc=);strokeColor=none;labelBackgroundColor=none;rounded=0;html=1;whiteSpace=wrap;strokeWidth=1;" parent="flblZkYbyNQ9tiGkdh4v-29" vertex="1">
          <mxGeometry x="260" y="60" width="240" height="100" as="geometry" />
        </mxCell>
        <mxCell id="U5MXIK-24vMOK5HsXXuc-66" style="vsdxID=1;edgeStyle=none;startArrow=none;endArrow=none;startSize=5;endSize=5;strokeColor=#000000;spacingTop=0;spacingBottom=0;spacingLeft=0;spacingRight=0;verticalAlign=middle;html=1;labelBackgroundColor=#ffffff;rounded=0;strokeWidth=1;" parent="flblZkYbyNQ9tiGkdh4v-29" edge="1">
          <mxGeometry relative="1" as="geometry">
            <mxPoint x="10" as="offset" />
            <Array as="points" />
            <mxPoint x="500" y="220" as="sourcePoint" />
            <mxPoint x="500" y="60" as="targetPoint" />
          </mxGeometry>
        </mxCell>
        <mxCell id="U5MXIK-24vMOK5HsXXuc-67" style="vsdxID=4;edgeStyle=none;startArrow=none;endArrow=none;startSize=5;endSize=5;strokeColor=#000000;spacingTop=0;spacingBottom=0;spacingLeft=0;spacingRight=0;verticalAlign=middle;html=1;labelBackgroundColor=#ffffff;rounded=0;strokeWidth=1;" parent="flblZkYbyNQ9tiGkdh4v-29" edge="1">
          <mxGeometry relative="1" as="geometry">
            <mxPoint x="10" as="offset" />
            <Array as="points" />
            <mxPoint x="260" y="220" as="sourcePoint" />
            <mxPoint x="260" as="targetPoint" />
          </mxGeometry>
        </mxCell>
        <mxCell id="U5MXIK-24vMOK5HsXXuc-70" style="vsdxID=11;edgeStyle=none;startArrow=none;endArrow=none;startSize=5;endSize=5;strokeColor=#000000;spacingTop=0;spacingBottom=0;spacingLeft=0;spacingRight=0;verticalAlign=middle;html=1;labelBackgroundColor=#ffffff;rounded=0;strokeWidth=1;" parent="flblZkYbyNQ9tiGkdh4v-29" edge="1">
          <mxGeometry relative="1" as="geometry">
            <Array as="points" />
            <mxPoint x="700" y="60" as="sourcePoint" />
            <mxPoint y="60" as="targetPoint" />
          </mxGeometry>
        </mxCell>
        <mxCell id="U5MXIK-24vMOK5HsXXuc-71" style="vsdxID=12;edgeStyle=none;startArrow=none;endArrow=none;startSize=5;endSize=5;strokeColor=#000000;spacingTop=0;spacingBottom=0;spacingLeft=0;spacingRight=0;verticalAlign=middle;html=1;labelBackgroundColor=#ffffff;rounded=0;strokeWidth=1;" parent="flblZkYbyNQ9tiGkdh4v-29" edge="1">
          <mxGeometry relative="1" as="geometry">
            <Array as="points" />
            <mxPoint x="700" y="160" as="sourcePoint" />
            <mxPoint y="160" as="targetPoint" />
          </mxGeometry>
        </mxCell>
        <mxCell id="U5MXIK-24vMOK5HsXXuc-72" style="vsdxID=13;edgeStyle=none;startArrow=none;endArrow=none;startSize=5;endSize=5;strokeColor=#000000;spacingTop=0;spacingBottom=0;spacingLeft=0;spacingRight=0;verticalAlign=middle;html=1;labelBackgroundColor=#ffffff;rounded=0;strokeWidth=1;" parent="flblZkYbyNQ9tiGkdh4v-29" edge="1">
          <mxGeometry relative="1" as="geometry">
            <Array as="points" />
            <mxPoint x="260" y="200" as="sourcePoint" />
            <mxPoint y="200" as="targetPoint" />
          </mxGeometry>
        </mxCell>
        <mxCell id="U5MXIK-24vMOK5HsXXuc-73" style="vsdxID=22;edgeStyle=none;startArrow=none;endArrow=none;startSize=5;endSize=5;strokeColor=#000000;spacingTop=0;spacingBottom=0;spacingLeft=0;spacingRight=0;verticalAlign=middle;html=1;labelBackgroundColor=#ffffff;rounded=0;strokeWidth=1;" parent="flblZkYbyNQ9tiGkdh4v-29" edge="1">
          <mxGeometry relative="1" as="geometry">
            <Array as="points" />
            <mxPoint x="260" y="180" as="sourcePoint" />
            <mxPoint y="180" as="targetPoint" />
          </mxGeometry>
        </mxCell>
        <mxCell id="U5MXIK-24vMOK5HsXXuc-74" style="vsdxID=23;edgeStyle=none;startArrow=none;endArrow=none;startSize=5;endSize=5;strokeColor=#000000;spacingTop=0;spacingBottom=0;spacingLeft=0;spacingRight=0;verticalAlign=middle;html=1;labelBackgroundColor=#ffffff;rounded=0;strokeWidth=1;" parent="flblZkYbyNQ9tiGkdh4v-29" edge="1">
          <mxGeometry relative="1" as="geometry">
            <Array as="points" />
            <mxPoint x="260" y="140" as="sourcePoint" />
            <mxPoint y="140" as="targetPoint" />
          </mxGeometry>
        </mxCell>
        <mxCell id="U5MXIK-24vMOK5HsXXuc-75" style="vsdxID=24;edgeStyle=none;startArrow=none;endArrow=none;startSize=5;endSize=5;strokeColor=#000000;spacingTop=0;spacingBottom=0;spacingLeft=0;spacingRight=0;verticalAlign=middle;html=1;labelBackgroundColor=#ffffff;rounded=0;strokeWidth=1;" parent="flblZkYbyNQ9tiGkdh4v-29" edge="1">
          <mxGeometry relative="1" as="geometry">
            <Array as="points" />
            <mxPoint x="260" y="120" as="sourcePoint" />
            <mxPoint y="120" as="targetPoint" />
          </mxGeometry>
        </mxCell>
        <mxCell id="U5MXIK-24vMOK5HsXXuc-76" style="vsdxID=25;edgeStyle=none;startArrow=none;endArrow=none;startSize=5;endSize=5;strokeColor=#000000;spacingTop=0;spacingBottom=0;spacingLeft=0;spacingRight=0;verticalAlign=middle;html=1;labelBackgroundColor=#ffffff;rounded=0;strokeWidth=1;" parent="flblZkYbyNQ9tiGkdh4v-29" edge="1">
          <mxGeometry relative="1" as="geometry">
            <Array as="points" />
            <mxPoint x="260" y="100" as="sourcePoint" />
            <mxPoint y="100" as="targetPoint" />
          </mxGeometry>
        </mxCell>
        <mxCell id="U5MXIK-24vMOK5HsXXuc-77" style="vsdxID=26;edgeStyle=none;startArrow=none;endArrow=none;startSize=5;endSize=5;strokeColor=#000000;spacingTop=0;spacingBottom=0;spacingLeft=0;spacingRight=0;verticalAlign=middle;html=1;labelBackgroundColor=#ffffff;rounded=0;strokeWidth=1;" parent="flblZkYbyNQ9tiGkdh4v-29" edge="1">
          <mxGeometry relative="1" as="geometry">
            <Array as="points" />
            <mxPoint x="260" y="80" as="sourcePoint" />
            <mxPoint y="80" as="targetPoint" />
          </mxGeometry>
        </mxCell>
        <mxCell id="U5MXIK-24vMOK5HsXXuc-78" style="vsdxID=27;edgeStyle=none;startArrow=none;endArrow=none;startSize=5;endSize=5;strokeColor=#000000;spacingTop=0;spacingBottom=0;spacingLeft=0;spacingRight=0;verticalAlign=middle;html=1;labelBackgroundColor=#ffffff;rounded=0;strokeWidth=1;" parent="flblZkYbyNQ9tiGkdh4v-29" edge="1">
          <mxGeometry relative="1" as="geometry">
            <Array as="points" />
            <mxPoint x="260" y="40" as="sourcePoint" />
            <mxPoint y="40" as="targetPoint" />
          </mxGeometry>
        </mxCell>
        <mxCell id="U5MXIK-24vMOK5HsXXuc-79" style="vsdxID=28;edgeStyle=none;startArrow=none;endArrow=none;startSize=5;endSize=5;strokeColor=#000000;spacingTop=0;spacingBottom=0;spacingLeft=0;spacingRight=0;verticalAlign=middle;html=1;labelBackgroundColor=#ffffff;rounded=0;strokeWidth=1;" parent="flblZkYbyNQ9tiGkdh4v-29" edge="1">
          <mxGeometry relative="1" as="geometry">
            <Array as="points" />
            <mxPoint x="260" y="20" as="sourcePoint" />
            <mxPoint y="20" as="targetPoint" />
          </mxGeometry>
        </mxCell>
        <mxCell id="U5MXIK-24vMOK5HsXXuc-80" style="vsdxID=29;edgeStyle=none;startArrow=none;endArrow=none;startSize=5;endSize=5;strokeColor=#000000;spacingTop=0;spacingBottom=0;spacingLeft=0;spacingRight=0;verticalAlign=middle;html=1;labelBackgroundColor=#ffffff;rounded=0;strokeWidth=1;" parent="flblZkYbyNQ9tiGkdh4v-29" edge="1">
          <mxGeometry relative="1" as="geometry">
            <Array as="points" />
            <mxPoint x="700" y="140" as="sourcePoint" />
            <mxPoint x="500" y="140" as="targetPoint" />
          </mxGeometry>
        </mxCell>
        <mxCell id="U5MXIK-24vMOK5HsXXuc-81" style="vsdxID=30;edgeStyle=none;startArrow=none;endArrow=none;startSize=5;endSize=5;strokeColor=#000000;spacingTop=0;spacingBottom=0;spacingLeft=0;spacingRight=0;verticalAlign=middle;html=1;labelBackgroundColor=#ffffff;rounded=0;strokeWidth=1;" parent="flblZkYbyNQ9tiGkdh4v-29" edge="1">
          <mxGeometry relative="1" as="geometry">
            <Array as="points" />
            <mxPoint x="700" y="80" as="sourcePoint" />
            <mxPoint x="500" y="80" as="targetPoint" />
          </mxGeometry>
        </mxCell>
        <mxCell id="U5MXIK-24vMOK5HsXXuc-82" style="vsdxID=31;edgeStyle=none;startArrow=none;endArrow=none;startSize=5;endSize=5;strokeColor=#000000;spacingTop=0;spacingBottom=0;spacingLeft=0;spacingRight=0;verticalAlign=middle;html=1;labelBackgroundColor=#ffffff;rounded=0;strokeWidth=1;" parent="flblZkYbyNQ9tiGkdh4v-29" edge="1">
          <mxGeometry relative="1" as="geometry">
            <mxPoint x="10" as="offset" />
            <Array as="points" />
            <mxPoint x="220" y="220" as="sourcePoint" />
            <mxPoint x="220" as="targetPoint" />
          </mxGeometry>
        </mxCell>
        <mxCell id="U5MXIK-24vMOK5HsXXuc-83" style="vsdxID=33;edgeStyle=none;startArrow=none;endArrow=none;startSize=5;endSize=5;strokeColor=#000000;spacingTop=0;spacingBottom=0;spacingLeft=0;spacingRight=0;verticalAlign=middle;html=1;labelBackgroundColor=#ffffff;rounded=0;strokeWidth=1;" parent="flblZkYbyNQ9tiGkdh4v-29" edge="1">
          <mxGeometry relative="1" as="geometry">
            <mxPoint x="10" as="offset" />
            <Array as="points" />
            <mxPoint x="167" y="220" as="sourcePoint" />
            <mxPoint x="167" as="targetPoint" />
          </mxGeometry>
        </mxCell>
        <mxCell id="U5MXIK-24vMOK5HsXXuc-84" style="vsdxID=34;edgeStyle=none;startArrow=none;endArrow=none;startSize=5;endSize=5;strokeColor=#000000;spacingTop=0;spacingBottom=0;spacingLeft=0;spacingRight=0;verticalAlign=middle;html=1;labelBackgroundColor=#ffffff;rounded=0;strokeWidth=1;" parent="flblZkYbyNQ9tiGkdh4v-29" edge="1">
          <mxGeometry relative="1" as="geometry">
            <mxPoint x="10" as="offset" />
            <Array as="points" />
            <mxPoint x="66" y="220" as="sourcePoint" />
            <mxPoint x="66" as="targetPoint" />
          </mxGeometry>
        </mxCell>
        <mxCell id="U5MXIK-24vMOK5HsXXuc-85" style="vsdxID=35;edgeStyle=none;startArrow=none;endArrow=none;startSize=5;endSize=5;strokeColor=#000000;spacingTop=0;spacingBottom=0;spacingLeft=0;spacingRight=0;verticalAlign=middle;html=1;labelBackgroundColor=#ffffff;rounded=0;strokeWidth=1;" parent="flblZkYbyNQ9tiGkdh4v-29" edge="1">
          <mxGeometry relative="1" as="geometry">
            <mxPoint x="10" as="offset" />
            <Array as="points" />
            <mxPoint x="30" y="100" as="sourcePoint" />
            <mxPoint x="30" as="targetPoint" />
          </mxGeometry>
        </mxCell>
        <mxCell id="U5MXIK-24vMOK5HsXXuc-86" style="vsdxID=36;edgeStyle=none;startArrow=none;endArrow=none;startSize=5;endSize=5;strokeColor=#000000;spacingTop=0;spacingBottom=0;spacingLeft=0;spacingRight=0;verticalAlign=middle;html=1;labelBackgroundColor=#ffffff;rounded=0;strokeWidth=1;" parent="flblZkYbyNQ9tiGkdh4v-29" edge="1">
          <mxGeometry relative="1" as="geometry">
            <mxPoint x="10" as="offset" />
            <Array as="points" />
            <mxPoint x="560" y="140" as="sourcePoint" />
            <mxPoint x="560" y="60" as="targetPoint" />
          </mxGeometry>
        </mxCell>
        <mxCell id="U5MXIK-24vMOK5HsXXuc-87" style="vsdxID=38;edgeStyle=none;startArrow=none;endArrow=none;startSize=5;endSize=5;strokeColor=#000000;spacingTop=0;spacingBottom=0;spacingLeft=0;spacingRight=0;verticalAlign=middle;html=1;labelBackgroundColor=#ffffff;rounded=0;strokeWidth=1;" parent="flblZkYbyNQ9tiGkdh4v-29" edge="1">
          <mxGeometry relative="1" as="geometry">
            <mxPoint x="10" as="offset" />
            <Array as="points" />
            <mxPoint x="620" y="140" as="sourcePoint" />
            <mxPoint x="620" y="60" as="targetPoint" />
          </mxGeometry>
        </mxCell>
        <mxCell id="U5MXIK-24vMOK5HsXXuc-88" style="vsdxID=39;edgeStyle=none;startArrow=none;endArrow=none;startSize=5;endSize=5;strokeColor=#000000;spacingTop=0;spacingBottom=0;spacingLeft=0;spacingRight=0;verticalAlign=middle;html=1;labelBackgroundColor=#ffffff;rounded=0;strokeWidth=1;" parent="flblZkYbyNQ9tiGkdh4v-29" edge="1">
          <mxGeometry relative="1" as="geometry">
            <mxPoint x="10" as="offset" />
            <Array as="points" />
            <mxPoint x="520" y="140" as="sourcePoint" />
            <mxPoint x="520" y="80" as="targetPoint" />
          </mxGeometry>
        </mxCell>
        <mxCell id="U5MXIK-24vMOK5HsXXuc-89" style="vsdxID=40;edgeStyle=none;startArrow=none;endArrow=none;startSize=5;endSize=5;strokeColor=#000000;spacingTop=0;spacingBottom=0;spacingLeft=0;spacingRight=0;verticalAlign=middle;html=1;labelBackgroundColor=#ffffff;rounded=0;strokeWidth=1;" parent="flblZkYbyNQ9tiGkdh4v-29" edge="1">
          <mxGeometry relative="1" as="geometry">
            <mxPoint x="10" as="offset" />
            <Array as="points" />
            <mxPoint x="540" y="140" as="sourcePoint" />
            <mxPoint x="540" y="80" as="targetPoint" />
          </mxGeometry>
        </mxCell>
        <mxCell id="U5MXIK-24vMOK5HsXXuc-6" value="&lt;p style=&quot;margin-left: 0 ; margin-right: 0 ; margin-top: 0px ; margin-bottom: 0px ; text-indent: 0 ; direction: ltr&quot;&gt;&lt;font style=&quot;font-family: &amp;#34;times new roman&amp;#34; ; color: rgb(0 , 0 , 0) ; direction: ltr ; letter-spacing: 0px ; line-height: 140% ; opacity: 1&quot; size=&quot;1&quot;&gt;&lt;i&gt;Лист&lt;/i&gt;&lt;/font&gt;&lt;font style=&quot;font-size: 12px ; font-family: &amp;#34;times new roman&amp;#34; ; color: #000000 ; direction: ltr ; letter-spacing: 0px ; line-height: 140% ; opacity: 1&quot;&gt;&lt;br&gt;&lt;/font&gt;&lt;/p&gt;" style="verticalAlign=middle;align=center;vsdxID=47;fillColor=none;gradientColor=none;shape=stencil(nZBLDoAgDERP0z3SIyjew0SURgSD+Lu9kMZoXLhwN9O+tukAlrNpJg1SzDH4QW/URgNYgZTkjA4UkwJUgGXng+6DX1zLfmoymdXo17xh5zmRJ6Q42BWCfc2oJfdAr+Yv+AP9Cb7OJ3H/2JG1HNGz/84klThPVCc=);strokeColor=none;labelBackgroundColor=none;rounded=0;html=1;whiteSpace=wrap;strokeWidth=1;" parent="flblZkYbyNQ9tiGkdh4v-29" vertex="1">
          <mxGeometry x="500" y="140" width="40" height="20" as="geometry" />
        </mxCell>
        <mxCell id="flblZkYbyNQ9tiGkdh4v-3" value="&lt;p style=&quot;margin-left: 0 ; margin-right: 0 ; margin-top: 0px ; margin-bottom: 0px ; text-indent: 0 ; direction: ltr&quot;&gt;&lt;font style=&quot;font-family: &amp;#34;times new roman&amp;#34; ; color: rgb(0 , 0 , 0) ; direction: ltr ; letter-spacing: 0px ; line-height: 140% ; opacity: 1&quot; size=&quot;1&quot;&gt;&lt;i&gt;Листов&lt;/i&gt;&lt;/font&gt;&lt;font style=&quot;font-size: 12px ; font-family: &amp;#34;times new roman&amp;#34; ; color: #000000 ; direction: ltr ; letter-spacing: 0px ; line-height: 140% ; opacity: 1&quot;&gt;&lt;br&gt;&lt;/font&gt;&lt;/p&gt;" style="verticalAlign=middle;align=center;vsdxID=47;fillColor=none;gradientColor=none;shape=stencil(nZBLDoAgDERP0z3SIyjew0SURgSD+Lu9kMZoXLhwN9O+tukAlrNpJg1SzDH4QW/URgNYgZTkjA4UkwJUgGXng+6DX1zLfmoymdXo17xh5zmRJ6Q42BWCfc2oJfdAr+Yv+AP9Cb7OJ3H/2JG1HNGz/84klThPVCc=);strokeColor=none;labelBackgroundColor=none;rounded=0;html=1;whiteSpace=wrap;strokeWidth=1;" parent="flblZkYbyNQ9tiGkdh4v-29" vertex="1">
          <mxGeometry x="580" y="140" width="50" height="20" as="geometry" />
        </mxCell>
        <mxCell id="flblZkYbyNQ9tiGkdh4v-5" value="&lt;p style=&quot;margin-left: 0 ; margin-right: 0 ; margin-top: 0px ; margin-bottom: 0px ; text-indent: 0 ; direction: ltr&quot;&gt;&lt;font style=&quot;font-family: &amp;#34;times new roman&amp;#34; ; color: rgb(0 , 0 , 0) ; direction: ltr ; letter-spacing: 0px ; line-height: 140% ; opacity: 1&quot; size=&quot;1&quot;&gt;&lt;i&gt;1&lt;/i&gt;&lt;/font&gt;&lt;font style=&quot;font-size: 12px ; font-family: &amp;#34;times new roman&amp;#34; ; color: #000000 ; direction: ltr ; letter-spacing: 0px ; line-height: 140% ; opacity: 1&quot;&gt;&lt;br&gt;&lt;/font&gt;&lt;/p&gt;" style="verticalAlign=middle;align=center;vsdxID=47;fillColor=none;gradientColor=none;shape=stencil(nZBLDoAgDERP0z3SIyjew0SURgSD+Lu9kMZoXLhwN9O+tukAlrNpJg1SzDH4QW/URgNYgZTkjA4UkwJUgGXng+6DX1zLfmoymdXo17xh5zmRJ6Q42BWCfc2oJfdAr+Yv+AP9Cb7OJ3H/2JG1HNGz/84klThPVCc=);strokeColor=none;labelBackgroundColor=none;rounded=0;html=1;whiteSpace=wrap;strokeWidth=1;" parent="flblZkYbyNQ9tiGkdh4v-29" vertex="1">
          <mxGeometry x="670" y="140" width="30" height="20" as="geometry" />
        </mxCell>
        <mxCell id="flblZkYbyNQ9tiGkdh4v-6" value="&lt;p style=&quot;margin-left: 0 ; margin-right: 0 ; margin-top: 0px ; margin-bottom: 0px ; text-indent: 0 ; direction: ltr&quot;&gt;&lt;font style=&quot;font-family: &amp;#34;times new roman&amp;#34; ; color: rgb(0 , 0 , 0) ; direction: ltr ; letter-spacing: 0px ; line-height: 140% ; opacity: 1&quot; size=&quot;1&quot;&gt;&lt;i&gt;1&lt;/i&gt;&lt;/font&gt;&lt;font style=&quot;font-size: 12px ; font-family: &amp;#34;times new roman&amp;#34; ; color: #000000 ; direction: ltr ; letter-spacing: 0px ; line-height: 140% ; opacity: 1&quot;&gt;&lt;br&gt;&lt;/font&gt;&lt;/p&gt;" style="verticalAlign=middle;align=center;vsdxID=47;fillColor=none;gradientColor=none;shape=stencil(nZBLDoAgDERP0z3SIyjew0SURgSD+Lu9kMZoXLhwN9O+tukAlrNpJg1SzDH4QW/URgNYgZTkjA4UkwJUgGXng+6DX1zLfmoymdXo17xh5zmRJ6Q42BWCfc2oJfdAr+Yv+AP9Cb7OJ3H/2JG1HNGz/84klThPVCc=);strokeColor=none;labelBackgroundColor=none;rounded=0;html=1;whiteSpace=wrap;strokeWidth=1;" parent="flblZkYbyNQ9tiGkdh4v-29" vertex="1">
          <mxGeometry x="550" y="140" width="30" height="20" as="geometry" />
        </mxCell>
        <mxCell id="flblZkYbyNQ9tiGkdh4v-7" value="&lt;p style=&quot;margin-left: 0 ; margin-right: 0 ; margin-top: 0px ; margin-bottom: 0px ; text-indent: 0 ; direction: ltr&quot;&gt;&lt;font style=&quot;font-family: &amp;#34;times new roman&amp;#34; ; color: rgb(0 , 0 , 0) ; direction: ltr ; letter-spacing: 0px ; line-height: 140% ; opacity: 1&quot; size=&quot;1&quot;&gt;&lt;i&gt;Масса&lt;/i&gt;&lt;/font&gt;&lt;font style=&quot;font-size: 12px ; font-family: &amp;#34;times new roman&amp;#34; ; color: #000000 ; direction: ltr ; letter-spacing: 0px ; line-height: 140% ; opacity: 1&quot;&gt;&lt;br&gt;&lt;/font&gt;&lt;/p&gt;" style="verticalAlign=middle;align=center;vsdxID=46;fillColor=none;gradientColor=none;shape=stencil(nZBLDoAgDERP0z3SIyjew0SURgSD+Lu9kMZoXLhwN9O+tukAlrNpJg1SzDH4QW/URgNYgZTkjA4UkwJUgGXng+6DX1zLfmoymdXo17xh5zmRJ6Q42BWCfc2oJfdAr+Yv+AP9Cb7OJ3H/2JG1HNGz/84klThPVCc=);strokeColor=none;labelBackgroundColor=none;rounded=0;html=1;whiteSpace=wrap;strokeWidth=1;" parent="flblZkYbyNQ9tiGkdh4v-29" vertex="1">
          <mxGeometry x="560" y="60" width="60" height="20" as="geometry" />
        </mxCell>
        <mxCell id="flblZkYbyNQ9tiGkdh4v-8" value="&lt;p style=&quot;margin-left: 0 ; margin-right: 0 ; margin-top: 0px ; margin-bottom: 0px ; text-indent: 0 ; direction: ltr&quot;&gt;&lt;font style=&quot;font-family: &amp;#34;times new roman&amp;#34; ; color: rgb(0 , 0 , 0) ; direction: ltr ; letter-spacing: 0px ; line-height: 140% ; opacity: 1&quot; size=&quot;1&quot;&gt;&lt;i&gt;Масштаб&lt;/i&gt;&lt;/font&gt;&lt;font style=&quot;font-size: 12px ; font-family: &amp;#34;times new roman&amp;#34; ; color: #000000 ; direction: ltr ; letter-spacing: 0px ; line-height: 140% ; opacity: 1&quot;&gt;&lt;br&gt;&lt;/font&gt;&lt;/p&gt;" style="verticalAlign=middle;align=center;vsdxID=46;fillColor=none;gradientColor=none;shape=stencil(nZBLDoAgDERP0z3SIyjew0SURgSD+Lu9kMZoXLhwN9O+tukAlrNpJg1SzDH4QW/URgNYgZTkjA4UkwJUgGXng+6DX1zLfmoymdXo17xh5zmRJ6Q42BWCfc2oJfdAr+Yv+AP9Cb7OJ3H/2JG1HNGz/84klThPVCc=);strokeColor=none;labelBackgroundColor=none;rounded=0;html=1;whiteSpace=wrap;strokeWidth=1;" parent="flblZkYbyNQ9tiGkdh4v-29" vertex="1">
          <mxGeometry x="620" y="60" width="80" height="20" as="geometry" />
        </mxCell>
        <mxCell id="U5MXIK-24vMOK5HsXXuc-8" value="&lt;p style=&quot;margin-left: 0 ; margin-right: 0 ; margin-top: 0px ; margin-bottom: 0px ; text-indent: 0 ; direction: ltr&quot;&gt;&lt;font style=&quot;font-family: &amp;#34;times new roman&amp;#34; ; color: rgb(0 , 0 , 0) ; direction: ltr ; letter-spacing: 0px ; line-height: 140% ; opacity: 1&quot; size=&quot;1&quot;&gt;&lt;i style=&quot;font-size: 12px&quot;&gt;ПОИТ гр. 151004&lt;/i&gt;&lt;/font&gt;&lt;font style=&quot;font-size: 16px ; font-family: &amp;#34;times new roman&amp;#34; ; color: #000000 ; direction: ltr ; letter-spacing: 0px ; line-height: 140% ; opacity: 1&quot;&gt;&lt;br&gt;&lt;/font&gt;&lt;/p&gt;" style="verticalAlign=middle;align=center;vsdxID=49;fillColor=none;gradientColor=none;shape=stencil(nZBLDoAgDERP0z3SIyjew0SURgSD+Lu9kMZoXLhwN9O+tukAlrNpJg1SzDH4QW/URgNYgZTkjA4UkwJUgGXng+6DX1zLfmoymdXo17xh5zmRJ6Q42BWCfc2oJfdAr+Yv+AP9Cb7OJ3H/2JG1HNGz/84klThPVCc=);strokeColor=none;labelBackgroundColor=none;rounded=0;html=1;whiteSpace=wrap;strokeWidth=1;" parent="flblZkYbyNQ9tiGkdh4v-29" vertex="1">
          <mxGeometry x="500" y="160" width="200" height="60" as="geometry" />
        </mxCell>
        <mxCell id="flblZkYbyNQ9tiGkdh4v-12" value="&lt;p style=&quot;margin-left: 0 ; margin-right: 0 ; margin-top: 0px ; margin-bottom: 0px ; text-indent: 0 ; direction: ltr&quot;&gt;&lt;font style=&quot;font-family: &amp;#34;times new roman&amp;#34; ; color: rgb(0 , 0 , 0) ; direction: ltr ; letter-spacing: 0px ; line-height: 140% ; opacity: 1&quot; size=&quot;1&quot;&gt;&lt;i&gt;Изм.&lt;/i&gt;&lt;/font&gt;&lt;font style=&quot;font-size: 12px ; font-family: &amp;#34;times new roman&amp;#34; ; color: #000000 ; direction: ltr ; letter-spacing: 0px ; line-height: 140% ; opacity: 1&quot;&gt;&lt;br&gt;&lt;/font&gt;&lt;/p&gt;" style="verticalAlign=middle;align=center;vsdxID=45;fillColor=none;gradientColor=none;shape=stencil(nZBLDoAgDERP0z3SIyjew0SURgSD+Lu9kMZoXLhwN9O+tukAlrNpJg1SzDH4QW/URgNYgZTkjA4UkwJUgGXng+6DX1zLfmoymdXo17xh5zmRJ6Q42BWCfc2oJfdAr+Yv+AP9Cb7OJ3H/2JG1HNGz/84klThPVCc=);strokeColor=none;labelBackgroundColor=none;rounded=0;html=1;whiteSpace=wrap;strokeWidth=1;" parent="flblZkYbyNQ9tiGkdh4v-29" vertex="1">
          <mxGeometry y="80" width="30" height="20" as="geometry" />
        </mxCell>
        <mxCell id="flblZkYbyNQ9tiGkdh4v-19" value="&lt;p style=&quot;margin-left: 0 ; margin-right: 0 ; margin-top: 0px ; margin-bottom: 0px ; text-indent: 0 ; direction: ltr&quot;&gt;&lt;font style=&quot;font-size: 13px;&quot; face=&quot;Times New Roman&quot;&gt;Гайко А.С.&amp;nbsp; &amp;nbsp; &amp;nbsp; &amp;nbsp;&amp;nbsp;&lt;/font&gt;&lt;/p&gt;" style="verticalAlign=middle;align=center;vsdxID=41;fillColor=none;gradientColor=none;shape=stencil(nZBLDoAgDERP0z3SIyjew0SURgSD+Lu9kMZoXLhwN9O+tukAlrNpJg1SzDH4QW/URgNYgZTkjA4UkwJUgGXng+6DX1zLfmoymdXo17xh5zmRJ6Q42BWCfc2oJfdAr+Yv+AP9Cb7OJ3H/2JG1HNGz/84klThPVCc=);strokeColor=none;labelBackgroundColor=none;rounded=0;html=1;whiteSpace=wrap;strokeWidth=1;" parent="flblZkYbyNQ9tiGkdh4v-29" vertex="1">
          <mxGeometry x="67" y="100" width="90" height="20" as="geometry" />
        </mxCell>
        <mxCell id="ORajsjJcxbQu_IU-mkYe-1" value="&lt;font face=&quot;Times New Roman&quot; size=&quot;1&quot;&gt;Т. Контроль&lt;/font&gt;" style="text;html=1;align=left;verticalAlign=middle;resizable=0;points=[];autosize=1;strokeColor=none;strokeWidth=1;fontStyle=2" parent="flblZkYbyNQ9tiGkdh4v-29" vertex="1">
          <mxGeometry y="140" width="70" height="20" as="geometry" />
        </mxCell>
        <mxCell id="ORajsjJcxbQu_IU-mkYe-2" value="&lt;span style=&quot;font-family: &amp;quot;times new roman&amp;quot; ; font-size: 10px&quot;&gt;Н. Контроль&lt;/span&gt;" style="text;html=1;align=left;verticalAlign=middle;resizable=0;points=[];autosize=1;strokeColor=none;strokeWidth=1;fontStyle=2" parent="flblZkYbyNQ9tiGkdh4v-29" vertex="1">
          <mxGeometry y="160" width="70" height="20" as="geometry" />
        </mxCell>
        <mxCell id="ORajsjJcxbQu_IU-mkYe-3" value="&lt;font face=&quot;Times New Roman&quot; style=&quot;font-size: 10px&quot;&gt;Утв.&lt;/font&gt;" style="text;html=1;align=left;verticalAlign=middle;resizable=0;points=[];autosize=1;strokeColor=none;strokeWidth=1;fontStyle=2" parent="flblZkYbyNQ9tiGkdh4v-29" vertex="1">
          <mxGeometry y="180" width="40" height="20" as="geometry" />
        </mxCell>
        <mxCell id="ORajsjJcxbQu_IU-mkYe-4" value="&lt;font face=&quot;Times New Roman&quot; style=&quot;font-size: 10px&quot;&gt;Реценз&lt;/font&gt;" style="text;html=1;align=left;verticalAlign=middle;resizable=0;points=[];autosize=1;strokeColor=none;strokeWidth=1;fontStyle=2" parent="flblZkYbyNQ9tiGkdh4v-29" vertex="1">
          <mxGeometry y="200" width="40" height="20" as="geometry" />
        </mxCell>
        <mxCell id="r4EkMSD5H6vDeUgWiK47-10" value="&lt;p style=&quot;margin-left: 0 ; margin-right: 0 ; margin-top: 0px ; margin-bottom: 0px ; text-indent: 0 ; direction: ltr&quot;&gt;&lt;font style=&quot;font-size: 14px ; font-family: &amp;#34;times new roman&amp;#34; ; color: #000000 ; direction: ltr ; letter-spacing: 0px ; line-height: 140% ; opacity: 1&quot;&gt;&lt;br&gt;&lt;/font&gt;&lt;/p&gt;" style="verticalAlign=middle;align=center;vsdxID=41;fillColor=none;gradientColor=none;shape=stencil(nZBLDoAgDERP0z3SIyjew0SURgSD+Lu9kMZoXLhwN9O+tukAlrNpJg1SzDH4QW/URgNYgZTkjA4UkwJUgGXng+6DX1zLfmoymdXo17xh5zmRJ6Q42BWCfc2oJfdAr+Yv+AP9Cb7OJ3H/2JG1HNGz/84klThPVCc=);strokeColor=none;labelBackgroundColor=none;rounded=0;html=1;whiteSpace=wrap;strokeWidth=1;" parent="flblZkYbyNQ9tiGkdh4v-29" vertex="1">
          <mxGeometry x="70" y="160" width="90" height="20" as="geometry" />
        </mxCell>
        <mxCell id="r4EkMSD5H6vDeUgWiK47-11" value="&lt;p style=&quot;margin-left: 0 ; margin-right: 0 ; margin-top: 0px ; margin-bottom: 0px ; text-indent: 0 ; direction: ltr&quot;&gt;&lt;font style=&quot;font-size: 14px ; font-family: &amp;#34;times new roman&amp;#34; ; color: #000000 ; direction: ltr ; letter-spacing: 0px ; line-height: 140% ; opacity: 1&quot;&gt;&lt;br&gt;&lt;/font&gt;&lt;/p&gt;" style="verticalAlign=middle;align=center;vsdxID=41;fillColor=none;gradientColor=none;shape=stencil(nZBLDoAgDERP0z3SIyjew0SURgSD+Lu9kMZoXLhwN9O+tukAlrNpJg1SzDH4QW/URgNYgZTkjA4UkwJUgGXng+6DX1zLfmoymdXo17xh5zmRJ6Q42BWCfc2oJfdAr+Yv+AP9Cb7OJ3H/2JG1HNGz/84klThPVCc=);strokeColor=none;labelBackgroundColor=none;rounded=0;html=1;whiteSpace=wrap;strokeWidth=1;" parent="flblZkYbyNQ9tiGkdh4v-29" vertex="1">
          <mxGeometry x="70" y="180" width="90" height="20" as="geometry" />
        </mxCell>
        <mxCell id="flblZkYbyNQ9tiGkdh4v-20" value="&lt;p style=&quot;margin-left: 0 ; margin-right: 0 ; margin-top: 0px ; margin-bottom: 0px ; text-indent: 0 ; direction: ltr&quot;&gt;&lt;font face=&quot;Times New Roman&quot; style=&quot;color: rgb(0, 0, 0); direction: ltr; letter-spacing: 0px; line-height: 140%; opacity: 1; font-size: 13px;&quot;&gt;Красковский Н.П.&lt;/font&gt;&lt;/p&gt;" style="verticalAlign=middle;align=center;vsdxID=41;fillColor=none;gradientColor=none;shape=stencil(nZBLDoAgDERP0z3SIyjew0SURgSD+Lu9kMZoXLhwN9O+tukAlrNpJg1SzDH4QW/URgNYgZTkjA4UkwJUgGXng+6DX1zLfmoymdXo17xh5zmRJ6Q42BWCfc2oJfdAr+Yv+AP9Cb7OJ3H/2JG1HNGz/84klThPVCc=);strokeColor=none;labelBackgroundColor=none;rounded=0;html=1;whiteSpace=wrap;strokeWidth=1;" parent="flblZkYbyNQ9tiGkdh4v-29" vertex="1">
          <mxGeometry x="62" y="125" width="110" height="10" as="geometry" />
        </mxCell>
        <mxCell id="ORajsjJcxbQu_IU-mkYe-6" value="&lt;font style=&quot;font-size: 8px&quot;&gt;У&lt;/font&gt;" style="text;html=1;align=center;verticalAlign=middle;resizable=0;points=[];autosize=1;strokeColor=none;strokeWidth=1;fontStyle=2" parent="1" vertex="1">
          <mxGeometry x="3080" y="2180" width="20" height="20" as="geometry" />
        </mxCell>
        <mxCell id="9Zyu01QpsSExNCl8jZLK-31" style="edgeStyle=orthogonalEdgeStyle;rounded=0;orthogonalLoop=1;jettySize=auto;html=1;exitX=0.5;exitY=1;exitDx=0;exitDy=0;entryX=0.5;entryY=0;entryDx=0;entryDy=0;endArrow=none;endFill=0;" parent="1" source="9Zyu01QpsSExNCl8jZLK-1" edge="1">
          <mxGeometry relative="1" as="geometry">
            <mxPoint x="490" y="234" as="targetPoint" />
          </mxGeometry>
        </mxCell>
        <mxCell id="9Zyu01QpsSExNCl8jZLK-1" value="&lt;font style=&quot;font-size: 28px;&quot;&gt;Вход&lt;br style=&quot;&quot;&gt;serverListening()&lt;br&gt;&lt;/font&gt;" style="rounded=1;whiteSpace=wrap;html=1;arcSize=50;fontFamily=Times New Roman;fontSize=26;strokeWidth=1;" parent="1" vertex="1">
          <mxGeometry x="250" y="90" width="480" height="100" as="geometry" />
        </mxCell>
        <mxCell id="9Zyu01QpsSExNCl8jZLK-32" style="edgeStyle=orthogonalEdgeStyle;rounded=0;orthogonalLoop=1;jettySize=auto;html=1;exitX=0.5;exitY=1;exitDx=0;exitDy=0;entryX=0.5;entryY=0;entryDx=0;entryDy=0;endArrow=none;endFill=0;" parent="1" edge="1">
          <mxGeometry relative="1" as="geometry">
            <mxPoint x="490" y="334" as="sourcePoint" />
            <mxPoint x="490" y="385.9999999999998" as="targetPoint" />
          </mxGeometry>
        </mxCell>
        <mxCell id="9Zyu01QpsSExNCl8jZLK-33" style="edgeStyle=orthogonalEdgeStyle;rounded=0;orthogonalLoop=1;jettySize=auto;html=1;exitX=0.5;exitY=1;exitDx=0;exitDy=0;entryX=0.5;entryY=0;entryDx=0;entryDy=0;endArrow=none;endFill=0;" parent="1" source="stOkx6Ju9ydZygOVj5nS-15" edge="1">
          <mxGeometry relative="1" as="geometry">
            <mxPoint x="490" y="505.9999999999998" as="sourcePoint" />
            <mxPoint x="490" y="560.9999999999998" as="targetPoint" />
          </mxGeometry>
        </mxCell>
        <mxCell id="9Zyu01QpsSExNCl8jZLK-34" style="edgeStyle=orthogonalEdgeStyle;rounded=0;orthogonalLoop=1;jettySize=auto;html=1;exitX=0.5;exitY=1;exitDx=0;exitDy=0;entryX=0.5;entryY=0;entryDx=0;entryDy=0;endArrow=none;endFill=0;" parent="1" edge="1">
          <mxGeometry relative="1" as="geometry">
            <mxPoint x="490" y="660.9999999999998" as="sourcePoint" />
            <mxPoint x="490" y="709" as="targetPoint" />
          </mxGeometry>
        </mxCell>
        <mxCell id="9Zyu01QpsSExNCl8jZLK-35" style="edgeStyle=orthogonalEdgeStyle;rounded=0;orthogonalLoop=1;jettySize=auto;html=1;exitX=0.5;exitY=1;exitDx=0;exitDy=0;entryX=0.5;entryY=0;entryDx=0;entryDy=0;endArrow=none;endFill=0;" parent="1" edge="1">
          <mxGeometry relative="1" as="geometry">
            <mxPoint x="490" y="809" as="sourcePoint" />
            <mxPoint x="490" y="875.5" as="targetPoint" />
          </mxGeometry>
        </mxCell>
        <mxCell id="9Zyu01QpsSExNCl8jZLK-37" style="edgeStyle=orthogonalEdgeStyle;rounded=0;orthogonalLoop=1;jettySize=auto;html=1;exitX=0.5;exitY=1;exitDx=0;exitDy=0;entryX=0.5;entryY=0;entryDx=0;entryDy=0;endArrow=none;endFill=0;" parent="1" source="9Zyu01QpsSExNCl8jZLK-6" target="9Zyu01QpsSExNCl8jZLK-7" edge="1">
          <mxGeometry relative="1" as="geometry" />
        </mxCell>
        <mxCell id="9Zyu01QpsSExNCl8jZLK-6" value="&lt;div style=&quot;margin-top: 0px; margin-bottom: 0px; font-size: 26px;&quot;&gt;enCards = int(data[4])&lt;/div&gt;" style="rounded=0;whiteSpace=wrap;html=1;fontFamily=Times New Roman;fontSize=26;" parent="1" vertex="1">
          <mxGeometry x="250" y="1020" width="480" height="100" as="geometry" />
        </mxCell>
        <mxCell id="9Zyu01QpsSExNCl8jZLK-38" style="edgeStyle=orthogonalEdgeStyle;rounded=0;orthogonalLoop=1;jettySize=auto;html=1;exitX=0.5;exitY=1;exitDx=0;exitDy=0;entryX=0.5;entryY=0;entryDx=0;entryDy=0;endArrow=none;endFill=0;" parent="1" source="9Zyu01QpsSExNCl8jZLK-7" edge="1">
          <mxGeometry relative="1" as="geometry">
            <mxPoint x="490" y="1315" as="targetPoint" />
          </mxGeometry>
        </mxCell>
        <mxCell id="9Zyu01QpsSExNCl8jZLK-7" value="&lt;div style=&quot;margin-top: 0px; margin-bottom: 0px; font-size: 26px;&quot;&gt;&lt;font style=&quot;font-size: 26px;&quot;&gt;data = data[1:4].encode()&lt;/font&gt;&lt;br style=&quot;font-size: 26px;&quot;&gt;&lt;/div&gt;" style="rounded=0;whiteSpace=wrap;html=1;fontFamily=Times New Roman;fontSize=26;" parent="1" vertex="1">
          <mxGeometry x="250" y="1169" width="480" height="100" as="geometry" />
        </mxCell>
        <mxCell id="9Zyu01QpsSExNCl8jZLK-36" style="edgeStyle=orthogonalEdgeStyle;rounded=0;orthogonalLoop=1;jettySize=auto;html=1;exitX=0.5;exitY=1;exitDx=0;exitDy=0;entryX=0.5;entryY=0;entryDx=0;entryDy=0;endArrow=none;endFill=0;" parent="1" target="9Zyu01QpsSExNCl8jZLK-6" edge="1">
          <mxGeometry relative="1" as="geometry">
            <mxPoint x="490" y="975.5" as="sourcePoint" />
          </mxGeometry>
        </mxCell>
        <mxCell id="9Zyu01QpsSExNCl8jZLK-39" style="edgeStyle=orthogonalEdgeStyle;rounded=0;orthogonalLoop=1;jettySize=auto;html=1;exitX=0.5;exitY=1;exitDx=0;exitDy=0;entryX=0.5;entryY=0;entryDx=0;entryDy=0;endArrow=none;endFill=0;" parent="1" target="9Zyu01QpsSExNCl8jZLK-10" edge="1">
          <mxGeometry relative="1" as="geometry">
            <mxPoint x="490" y="1415" as="sourcePoint" />
          </mxGeometry>
        </mxCell>
        <mxCell id="9Zyu01QpsSExNCl8jZLK-40" style="edgeStyle=orthogonalEdgeStyle;rounded=0;orthogonalLoop=1;jettySize=auto;html=1;exitX=0.5;exitY=1;exitDx=0;exitDy=0;entryX=0.5;entryY=0;entryDx=0;entryDy=0;endArrow=none;endFill=0;" parent="1" source="9Zyu01QpsSExNCl8jZLK-10" target="9Zyu01QpsSExNCl8jZLK-11" edge="1">
          <mxGeometry relative="1" as="geometry" />
        </mxCell>
        <mxCell id="9Zyu01QpsSExNCl8jZLK-10" value="&lt;div style=&quot;margin-top: 0px; margin-bottom: 0px; font-size: 26px;&quot;&gt;&lt;font style=&quot;font-size: 26px;&quot;&gt;cardToSendClient = data&lt;/font&gt;&lt;br style=&quot;font-size: 26px;&quot;&gt;&lt;/div&gt;" style="rounded=0;whiteSpace=wrap;html=1;fontFamily=Times New Roman;fontSize=26;" parent="1" vertex="1">
          <mxGeometry x="250" y="1474" width="480" height="100" as="geometry" />
        </mxCell>
        <mxCell id="9Zyu01QpsSExNCl8jZLK-41" style="edgeStyle=orthogonalEdgeStyle;rounded=0;orthogonalLoop=1;jettySize=auto;html=1;exitX=0.5;exitY=1;exitDx=0;exitDy=0;entryX=0.5;entryY=0;entryDx=0;entryDy=0;endArrow=none;endFill=0;" parent="1" source="9Zyu01QpsSExNCl8jZLK-11" edge="1">
          <mxGeometry relative="1" as="geometry">
            <mxPoint x="490" y="1759" as="targetPoint" />
          </mxGeometry>
        </mxCell>
        <mxCell id="9Zyu01QpsSExNCl8jZLK-11" value="&lt;div style=&quot;margin-top: 0px; margin-bottom: 0px; font-size: 26px;&quot;&gt;&lt;font style=&quot;font-size: 26px;&quot;&gt;cpl = currentPl&lt;/font&gt;&lt;br style=&quot;font-size: 26px;&quot;&gt;&lt;/div&gt;" style="rounded=0;whiteSpace=wrap;html=1;fontFamily=Times New Roman;fontSize=26;" parent="1" vertex="1">
          <mxGeometry x="250" y="1610" width="480" height="100" as="geometry" />
        </mxCell>
        <mxCell id="9Zyu01QpsSExNCl8jZLK-59" style="edgeStyle=orthogonalEdgeStyle;rounded=0;orthogonalLoop=1;jettySize=auto;html=1;exitX=0.5;exitY=1;exitDx=0;exitDy=0;entryX=0.5;entryY=0;entryDx=0;entryDy=0;endArrow=none;endFill=0;" parent="1" edge="1">
          <mxGeometry relative="1" as="geometry">
            <mxPoint x="490" y="1859" as="sourcePoint" />
            <mxPoint x="490" y="1867" as="targetPoint" />
          </mxGeometry>
        </mxCell>
        <mxCell id="9Zyu01QpsSExNCl8jZLK-42" style="edgeStyle=orthogonalEdgeStyle;rounded=0;orthogonalLoop=1;jettySize=auto;html=1;exitX=0.5;exitY=1;exitDx=0;exitDy=0;entryX=0.5;entryY=0;entryDx=0;entryDy=0;endArrow=none;endFill=0;" parent="1" target="9Zyu01QpsSExNCl8jZLK-30" edge="1">
          <mxGeometry relative="1" as="geometry">
            <mxPoint x="2365" y="878" as="sourcePoint" />
          </mxGeometry>
        </mxCell>
        <mxCell id="9Zyu01QpsSExNCl8jZLK-30" value="&lt;font style=&quot;font-size: 28px;&quot;&gt;Выход&lt;br style=&quot;&quot;&gt;serverListening()&lt;br&gt;&lt;/font&gt;" style="rounded=1;whiteSpace=wrap;html=1;arcSize=50;fontFamily=Times New Roman;fontSize=26;strokeWidth=1;" parent="1" vertex="1">
          <mxGeometry x="2125" y="1110" width="480" height="100" as="geometry" />
        </mxCell>
        <mxCell id="9Zyu01QpsSExNCl8jZLK-55" style="edgeStyle=orthogonalEdgeStyle;rounded=0;orthogonalLoop=1;jettySize=auto;html=1;exitX=0.5;exitY=1;exitDx=0;exitDy=0;entryX=0.5;entryY=0;entryDx=0;entryDy=0;endArrow=none;endFill=0;" parent="1" source="9Zyu01QpsSExNCl8jZLK-54" edge="1">
          <mxGeometry relative="1" as="geometry">
            <mxPoint x="2365" y="222" as="targetPoint" />
          </mxGeometry>
        </mxCell>
        <mxCell id="9Zyu01QpsSExNCl8jZLK-54" value="&lt;font style=&quot;font-size: 28px;&quot;&gt;2&lt;/font&gt;" style="ellipse;whiteSpace=wrap;html=1;aspect=fixed;fontFamily=Times New Roman;fontSize=26;fontColor=#000000;" parent="1" vertex="1">
          <mxGeometry x="2315" y="79" width="100" height="100" as="geometry" />
        </mxCell>
        <mxCell id="9Zyu01QpsSExNCl8jZLK-57" value="&lt;font style=&quot;font-size: 28px;&quot;&gt;2&lt;/font&gt;" style="ellipse;whiteSpace=wrap;html=1;aspect=fixed;fontFamily=Times New Roman;fontSize=26;fontColor=#000000;" parent="1" vertex="1">
          <mxGeometry x="439" y="1785" width="100" height="100" as="geometry" />
        </mxCell>
        <mxCell id="9Zyu01QpsSExNCl8jZLK-62" value="" style="endArrow=open;html=1;rounded=0;exitX=0.5;exitY=1;exitDx=0;exitDy=0;entryX=0.5;entryY=0;entryDx=0;entryDy=0;endFill=0;strokeWidth=1;jumpSize=6;startSize=6;fontSize=12;endSize=16;" parent="1" source="9Zyu01QpsSExNCl8jZLK-11" target="9Zyu01QpsSExNCl8jZLK-57" edge="1">
          <mxGeometry width="50" height="50" relative="1" as="geometry">
            <mxPoint x="730" y="1927" as="sourcePoint" />
            <mxPoint x="1260" y="1517" as="targetPoint" />
            <Array as="points">
              <mxPoint x="490" y="1760" />
            </Array>
          </mxGeometry>
        </mxCell>
        <mxCell id="9Zyu01QpsSExNCl8jZLK-70" value="" style="endArrow=open;html=1;rounded=0;exitX=1;exitY=0.5;exitDx=0;exitDy=0;entryX=0.5;entryY=0;entryDx=0;entryDy=0;endFill=0;endSize=16;" parent="1" target="9Zyu01QpsSExNCl8jZLK-71" edge="1">
          <mxGeometry width="50" height="50" relative="1" as="geometry">
            <mxPoint x="730" y="587.4999999999998" as="sourcePoint" />
            <mxPoint x="910" y="701.5" as="targetPoint" />
            <Array as="points">
              <mxPoint x="1130" y="590" />
            </Array>
          </mxGeometry>
        </mxCell>
        <mxCell id="9Zyu01QpsSExNCl8jZLK-71" value="&lt;font style=&quot;font-size: 28px;&quot;&gt;1&lt;/font&gt;" style="ellipse;whiteSpace=wrap;html=1;aspect=fixed;fontFamily=Times New Roman;fontSize=26;fontColor=#000000;" parent="1" vertex="1">
          <mxGeometry x="1080" y="642" width="100" height="100" as="geometry" />
        </mxCell>
        <mxCell id="9Zyu01QpsSExNCl8jZLK-73" style="edgeStyle=orthogonalEdgeStyle;rounded=0;orthogonalLoop=1;jettySize=auto;html=1;exitX=0;exitY=0.5;exitDx=0;exitDy=0;endArrow=open;endFill=0;endSize=16;" parent="1" source="9Zyu01QpsSExNCl8jZLK-72" edge="1">
          <mxGeometry relative="1" as="geometry">
            <mxPoint x="2365" y="909" as="targetPoint" />
          </mxGeometry>
        </mxCell>
        <mxCell id="9Zyu01QpsSExNCl8jZLK-72" value="&lt;font style=&quot;font-size: 28px;&quot;&gt;1&lt;/font&gt;" style="ellipse;whiteSpace=wrap;html=1;aspect=fixed;fontFamily=Times New Roman;fontSize=26;fontColor=#000000;" parent="1" vertex="1">
          <mxGeometry x="2770" y="859" width="100" height="100" as="geometry" />
        </mxCell>
        <mxCell id="9Zyu01QpsSExNCl8jZLK-76" value="Нет" style="text;html=1;align=center;verticalAlign=middle;resizable=0;points=[];autosize=1;strokeColor=none;fillColor=none;fontFamily=Times New Roman;fontSize=28;" parent="1" vertex="1">
          <mxGeometry x="736" y="546.5" width="70" height="50" as="geometry" />
        </mxCell>
        <mxCell id="9Zyu01QpsSExNCl8jZLK-77" value="Да" style="text;html=1;align=center;verticalAlign=middle;resizable=0;points=[];autosize=1;strokeColor=none;fillColor=none;fontFamily=Times New Roman;fontSize=28;" parent="1" vertex="1">
          <mxGeometry x="435" y="649" width="60" height="50" as="geometry" />
        </mxCell>
        <mxCell id="9Zyu01QpsSExNCl8jZLK-80" value="1" style="text;html=1;align=center;verticalAlign=middle;resizable=0;points=[];autosize=1;strokeColor=none;fillColor=none;fontSize=28;fontFamily=Times New Roman;fontColor=#000000;" parent="1" vertex="1">
          <mxGeometry x="240" y="60" width="40" height="50" as="geometry" />
        </mxCell>
        <mxCell id="9Zyu01QpsSExNCl8jZLK-81" value="2" style="text;html=1;align=center;verticalAlign=middle;resizable=0;points=[];autosize=1;strokeColor=none;fillColor=none;fontFamily=Times New Roman;fontSize=28;" parent="1" vertex="1">
          <mxGeometry x="240" y="188" width="40" height="50" as="geometry" />
        </mxCell>
        <mxCell id="9Zyu01QpsSExNCl8jZLK-82" value="3" style="text;html=1;align=center;verticalAlign=middle;resizable=0;points=[];autosize=1;strokeColor=none;fillColor=none;fontFamily=Times New Roman;fontSize=28;" parent="1" vertex="1">
          <mxGeometry x="246" y="400" width="40" height="50" as="geometry" />
        </mxCell>
        <mxCell id="9Zyu01QpsSExNCl8jZLK-83" value="4" style="text;html=1;align=center;verticalAlign=middle;resizable=0;points=[];autosize=1;strokeColor=none;fillColor=none;fontFamily=Times New Roman;fontSize=28;" parent="1" vertex="1">
          <mxGeometry x="250" y="540" width="40" height="50" as="geometry" />
        </mxCell>
        <mxCell id="9Zyu01QpsSExNCl8jZLK-84" value="5" style="text;html=1;align=center;verticalAlign=middle;resizable=0;points=[];autosize=1;strokeColor=none;fillColor=none;fontFamily=Times New Roman;fontSize=26;" parent="1" vertex="1">
          <mxGeometry x="250" y="703" width="40" height="40" as="geometry" />
        </mxCell>
        <mxCell id="9Zyu01QpsSExNCl8jZLK-85" value="6" style="text;html=1;align=center;verticalAlign=middle;resizable=0;points=[];autosize=1;strokeColor=none;fillColor=none;fontFamily=Times New Roman;fontSize=26;" parent="1" vertex="1">
          <mxGeometry x="247" y="828" width="40" height="40" as="geometry" />
        </mxCell>
        <mxCell id="9Zyu01QpsSExNCl8jZLK-86" value="7" style="text;html=1;align=center;verticalAlign=middle;resizable=0;points=[];autosize=1;strokeColor=none;fillColor=none;fontFamily=Times New Roman;fontSize=26;" parent="1" vertex="1">
          <mxGeometry x="250" y="980" width="40" height="40" as="geometry" />
        </mxCell>
        <mxCell id="9Zyu01QpsSExNCl8jZLK-87" value="8" style="text;html=1;align=center;verticalAlign=middle;resizable=0;points=[];autosize=1;strokeColor=none;fillColor=none;fontFamily=Times New Roman;fontSize=26;" parent="1" vertex="1">
          <mxGeometry x="250" y="1133" width="40" height="40" as="geometry" />
        </mxCell>
        <mxCell id="9Zyu01QpsSExNCl8jZLK-88" value="9" style="text;html=1;align=center;verticalAlign=middle;resizable=0;points=[];autosize=1;strokeColor=none;fillColor=none;fontFamily=Times New Roman;fontSize=26;" parent="1" vertex="1">
          <mxGeometry x="249" y="1278" width="40" height="40" as="geometry" />
        </mxCell>
        <mxCell id="9Zyu01QpsSExNCl8jZLK-89" value="10" style="text;html=1;align=center;verticalAlign=middle;resizable=0;points=[];autosize=1;strokeColor=none;fillColor=none;fontFamily=Times New Roman;fontSize=26;" parent="1" vertex="1">
          <mxGeometry x="238" y="1427" width="50" height="40" as="geometry" />
        </mxCell>
        <mxCell id="9Zyu01QpsSExNCl8jZLK-90" value="11" style="text;html=1;align=center;verticalAlign=middle;resizable=0;points=[];autosize=1;strokeColor=none;fillColor=none;fontFamily=Times New Roman;fontSize=26;" parent="1" vertex="1">
          <mxGeometry x="240" y="1574" width="50" height="40" as="geometry" />
        </mxCell>
        <mxCell id="9Zyu01QpsSExNCl8jZLK-104" value="24" style="text;html=1;align=center;verticalAlign=middle;resizable=0;points=[];autosize=1;strokeColor=none;fillColor=none;fontFamily=Times New Roman;fontSize=28;" parent="1" vertex="1">
          <mxGeometry x="2120" y="1070" width="50" height="50" as="geometry" />
        </mxCell>
        <mxCell id="stOkx6Ju9ydZygOVj5nS-11" value="&lt;font style=&quot;font-size: 28px;&quot; face=&quot;Times New Roman&quot;&gt;A1&lt;br&gt;for player in players&lt;/font&gt;" style="shape=loopLimit;whiteSpace=wrap;html=1;size=42;" vertex="1" parent="1">
          <mxGeometry x="250" y="229" width="480" height="101" as="geometry" />
        </mxCell>
        <mxCell id="stOkx6Ju9ydZygOVj5nS-14" value="data != &#39;nothing&#39;" style="rhombus;whiteSpace=wrap;html=1;fontSize=26;fontFamily=Times New Roman;" vertex="1" parent="1">
          <mxGeometry x="250" y="529" width="480" height="120" as="geometry" />
        </mxCell>
        <mxCell id="stOkx6Ju9ydZygOVj5nS-15" value="&lt;div style=&quot;margin-top: 0px; margin-bottom: 0px; font-size: 26px;&quot;&gt;&lt;font style=&quot;font-size: 26px;&quot;&gt;data = player.conn.recv(1024).decode()&lt;/font&gt;&lt;br style=&quot;font-size: 26px;&quot;&gt;&lt;/div&gt;" style="rounded=0;whiteSpace=wrap;html=1;fontFamily=Times New Roman;fontSize=26;" vertex="1" parent="1">
          <mxGeometry x="250" y="382" width="480" height="100" as="geometry" />
        </mxCell>
        <mxCell id="stOkx6Ju9ydZygOVj5nS-16" value="3" style="text;html=1;align=center;verticalAlign=middle;resizable=0;points=[];autosize=1;strokeColor=none;fillColor=none;fontFamily=Times New Roman;fontSize=28;" vertex="1" parent="1">
          <mxGeometry x="240" y="341" width="40" height="50" as="geometry" />
        </mxCell>
        <mxCell id="stOkx6Ju9ydZygOVj5nS-18" value="" style="endArrow=open;html=1;rounded=0;exitX=0.5;exitY=1;exitDx=0;exitDy=0;entryX=0.5;entryY=0;entryDx=0;entryDy=0;endFill=0;endSize=16;" edge="1" parent="1" source="stOkx6Ju9ydZygOVj5nS-14" target="stOkx6Ju9ydZygOVj5nS-27">
          <mxGeometry width="50" height="50" relative="1" as="geometry">
            <mxPoint x="590" y="648.9999999999998" as="sourcePoint" />
            <mxPoint x="490" y="709" as="targetPoint" />
            <Array as="points" />
          </mxGeometry>
        </mxCell>
        <mxCell id="stOkx6Ju9ydZygOVj5nS-21" value="" style="endArrow=open;html=1;rounded=0;exitX=1;exitY=0.5;exitDx=0;exitDy=0;endFill=0;endSize=16;entryX=0.5;entryY=0;entryDx=0;entryDy=0;" edge="1" parent="1" target="stOkx6Ju9ydZygOVj5nS-29">
          <mxGeometry width="50" height="50" relative="1" as="geometry">
            <mxPoint x="730" y="761.4999999999998" as="sourcePoint" />
            <mxPoint x="1080" y="880" as="targetPoint" />
            <Array as="points">
              <mxPoint x="1220" y="761" />
            </Array>
          </mxGeometry>
        </mxCell>
        <mxCell id="stOkx6Ju9ydZygOVj5nS-23" value="Нет" style="text;html=1;align=center;verticalAlign=middle;resizable=0;points=[];autosize=1;strokeColor=none;fillColor=none;fontFamily=Times New Roman;fontSize=28;" vertex="1" parent="1">
          <mxGeometry x="425" y="818" width="70" height="50" as="geometry" />
        </mxCell>
        <mxCell id="stOkx6Ju9ydZygOVj5nS-24" value="Да" style="text;html=1;align=center;verticalAlign=middle;resizable=0;points=[];autosize=1;strokeColor=none;fillColor=none;fontFamily=Times New Roman;fontSize=28;" vertex="1" parent="1">
          <mxGeometry x="736" y="710" width="60" height="50" as="geometry" />
        </mxCell>
        <mxCell id="stOkx6Ju9ydZygOVj5nS-27" value="data == &#39;putting&#39;" style="rhombus;whiteSpace=wrap;html=1;fontSize=26;fontFamily=Times New Roman;" vertex="1" parent="1">
          <mxGeometry x="250" y="703" width="480" height="120" as="geometry" />
        </mxCell>
        <mxCell id="stOkx6Ju9ydZygOVj5nS-28" value="" style="endArrow=open;html=1;rounded=0;exitX=0.5;exitY=1;exitDx=0;exitDy=0;entryX=0.5;entryY=0;entryDx=0;entryDy=0;endFill=0;endSize=16;" edge="1" parent="1" source="stOkx6Ju9ydZygOVj5nS-27">
          <mxGeometry width="50" height="50" relative="1" as="geometry">
            <mxPoint x="590" y="822.9999999999998" as="sourcePoint" />
            <mxPoint x="490" y="875.5" as="targetPoint" />
            <Array as="points" />
          </mxGeometry>
        </mxCell>
        <mxCell id="stOkx6Ju9ydZygOVj5nS-29" value="&lt;div style=&quot;margin-top: 0px; margin-bottom: 0px; font-size: 26px;&quot;&gt;cpl = currentPl&lt;/div&gt;" style="rounded=0;whiteSpace=wrap;html=1;fontFamily=Times New Roman;fontSize=26;" vertex="1" parent="1">
          <mxGeometry x="980" y="880" width="480" height="100" as="geometry" />
        </mxCell>
        <mxCell id="stOkx6Ju9ydZygOVj5nS-30" value="currentPl == 1" style="rhombus;whiteSpace=wrap;html=1;fontSize=26;fontFamily=Times New Roman;" vertex="1" parent="1">
          <mxGeometry x="980" y="1020" width="480" height="120" as="geometry" />
        </mxCell>
        <mxCell id="stOkx6Ju9ydZygOVj5nS-31" value="" style="endArrow=none;html=1;rounded=0;entryX=0.5;entryY=1;entryDx=0;entryDy=0;exitX=0.5;exitY=0;exitDx=0;exitDy=0;" edge="1" parent="1" source="stOkx6Ju9ydZygOVj5nS-30" target="stOkx6Ju9ydZygOVj5nS-29">
          <mxGeometry width="50" height="50" relative="1" as="geometry">
            <mxPoint x="980" y="1080" as="sourcePoint" />
            <mxPoint x="1030" y="1030" as="targetPoint" />
          </mxGeometry>
        </mxCell>
        <mxCell id="stOkx6Ju9ydZygOVj5nS-32" value="&lt;div style=&quot;margin-top: 0px; margin-bottom: 0px; font-size: 26px;&quot;&gt;currentPl = 2&lt;/div&gt;" style="rounded=0;whiteSpace=wrap;html=1;fontFamily=Times New Roman;fontSize=26;" vertex="1" parent="1">
          <mxGeometry x="980" y="1190" width="480" height="100" as="geometry" />
        </mxCell>
        <mxCell id="stOkx6Ju9ydZygOVj5nS-34" value="" style="endArrow=open;html=1;rounded=0;endFill=0;endSize=16;entryX=0.5;entryY=0;entryDx=0;entryDy=0;exitX=1;exitY=0.5;exitDx=0;exitDy=0;" edge="1" parent="1" source="stOkx6Ju9ydZygOVj5nS-30">
          <mxGeometry width="50" height="50" relative="1" as="geometry">
            <mxPoint x="1470" y="1070" as="sourcePoint" />
            <mxPoint x="1750" y="1190.0000000000002" as="targetPoint" />
            <Array as="points">
              <mxPoint x="1750" y="1081" />
            </Array>
          </mxGeometry>
        </mxCell>
        <mxCell id="stOkx6Ju9ydZygOVj5nS-35" value="" style="endArrow=open;html=1;rounded=0;exitX=0.5;exitY=1;exitDx=0;exitDy=0;endFill=0;endSize=16;entryX=0.5;entryY=0;entryDx=0;entryDy=0;" edge="1" parent="1" source="stOkx6Ju9ydZygOVj5nS-30" target="stOkx6Ju9ydZygOVj5nS-32">
          <mxGeometry width="50" height="50" relative="1" as="geometry">
            <mxPoint x="1470" y="1091.4999999999998" as="sourcePoint" />
            <mxPoint x="1760" y="1200" as="targetPoint" />
            <Array as="points" />
          </mxGeometry>
        </mxCell>
        <mxCell id="stOkx6Ju9ydZygOVj5nS-37" value="cpl == 2" style="rhombus;whiteSpace=wrap;html=1;fontSize=26;fontFamily=Times New Roman;" vertex="1" parent="1">
          <mxGeometry x="1510" y="1190" width="480" height="120" as="geometry" />
        </mxCell>
        <mxCell id="stOkx6Ju9ydZygOVj5nS-38" value="&lt;div style=&quot;margin-top: 0px; margin-bottom: 0px; font-size: 26px;&quot;&gt;currentPl = 1&lt;/div&gt;" style="rounded=0;whiteSpace=wrap;html=1;fontFamily=Times New Roman;fontSize=26;" vertex="1" parent="1">
          <mxGeometry x="1510" y="1361" width="480" height="100" as="geometry" />
        </mxCell>
        <mxCell id="stOkx6Ju9ydZygOVj5nS-40" value="" style="endArrow=open;html=1;rounded=0;endFill=0;endSize=16;entryX=0.5;entryY=0;entryDx=0;entryDy=0;exitX=0.5;exitY=1;exitDx=0;exitDy=0;" edge="1" parent="1" source="stOkx6Ju9ydZygOVj5nS-37" target="stOkx6Ju9ydZygOVj5nS-38">
          <mxGeometry width="50" height="50" relative="1" as="geometry">
            <mxPoint x="1470" y="1090" as="sourcePoint" />
            <mxPoint x="1760" y="1200.0000000000002" as="targetPoint" />
            <Array as="points">
              <mxPoint x="1750" y="1340" />
            </Array>
          </mxGeometry>
        </mxCell>
        <mxCell id="stOkx6Ju9ydZygOVj5nS-41" value="Да" style="text;html=1;align=center;verticalAlign=middle;resizable=0;points=[];autosize=1;strokeColor=none;fillColor=none;fontFamily=Times New Roman;fontSize=28;" vertex="1" parent="1">
          <mxGeometry x="1170" y="1133" width="60" height="50" as="geometry" />
        </mxCell>
        <mxCell id="stOkx6Ju9ydZygOVj5nS-42" value="Да" style="text;html=1;align=center;verticalAlign=middle;resizable=0;points=[];autosize=1;strokeColor=none;fillColor=none;fontFamily=Times New Roman;fontSize=28;" vertex="1" parent="1">
          <mxGeometry x="1690" y="1300" width="60" height="50" as="geometry" />
        </mxCell>
        <mxCell id="stOkx6Ju9ydZygOVj5nS-43" value="Нет" style="text;html=1;align=center;verticalAlign=middle;resizable=0;points=[];autosize=1;strokeColor=none;fillColor=none;fontFamily=Times New Roman;fontSize=28;" vertex="1" parent="1">
          <mxGeometry x="1470" y="1040" width="70" height="50" as="geometry" />
        </mxCell>
        <mxCell id="stOkx6Ju9ydZygOVj5nS-44" value="&lt;div style=&quot;margin-top: 0px; margin-bottom: 0px; font-size: 26px;&quot;&gt;&lt;font style=&quot;font-size: 26px;&quot;&gt;currentPl = int(data[0])&lt;/font&gt;&lt;br style=&quot;font-size: 26px;&quot;&gt;&lt;/div&gt;" style="rounded=0;whiteSpace=wrap;html=1;fontFamily=Times New Roman;fontSize=26;" vertex="1" parent="1">
          <mxGeometry x="249" y="875" width="480" height="100" as="geometry" />
        </mxCell>
        <mxCell id="stOkx6Ju9ydZygOVj5nS-46" value="" style="endArrow=open;html=1;rounded=0;endFill=0;endSize=16;exitX=1;exitY=0.5;exitDx=0;exitDy=0;" edge="1" parent="1" source="stOkx6Ju9ydZygOVj5nS-37">
          <mxGeometry width="50" height="50" relative="1" as="geometry">
            <mxPoint x="1700" y="1539" as="sourcePoint" />
            <mxPoint x="1220" y="1510" as="targetPoint" />
            <Array as="points">
              <mxPoint x="2030" y="1250" />
              <mxPoint x="2030" y="1510" />
            </Array>
          </mxGeometry>
        </mxCell>
        <mxCell id="stOkx6Ju9ydZygOVj5nS-47" value="" style="endArrow=open;html=1;rounded=0;endFill=0;endSize=16;exitX=0.5;exitY=1;exitDx=0;exitDy=0;" edge="1" parent="1" source="stOkx6Ju9ydZygOVj5nS-38">
          <mxGeometry width="50" height="50" relative="1" as="geometry">
            <mxPoint x="1470" y="1090" as="sourcePoint" />
            <mxPoint x="1750" y="1510" as="targetPoint" />
            <Array as="points" />
          </mxGeometry>
        </mxCell>
        <mxCell id="stOkx6Ju9ydZygOVj5nS-48" value="Нет" style="text;html=1;align=center;verticalAlign=middle;resizable=0;points=[];autosize=1;strokeColor=none;fillColor=none;fontFamily=Times New Roman;fontSize=28;" vertex="1" parent="1">
          <mxGeometry x="1970" y="1200" width="70" height="50" as="geometry" />
        </mxCell>
        <mxCell id="stOkx6Ju9ydZygOVj5nS-49" value="" style="endArrow=open;html=1;rounded=0;endFill=0;endSize=16;exitX=0.5;exitY=1;exitDx=0;exitDy=0;entryX=0.5;entryY=0;entryDx=0;entryDy=0;" edge="1" parent="1" source="stOkx6Ju9ydZygOVj5nS-32" target="stOkx6Ju9ydZygOVj5nS-50">
          <mxGeometry width="50" height="50" relative="1" as="geometry">
            <mxPoint x="1470" y="1090" as="sourcePoint" />
            <mxPoint x="1220" y="1550" as="targetPoint" />
            <Array as="points">
              <mxPoint x="1220" y="1360" />
            </Array>
          </mxGeometry>
        </mxCell>
        <mxCell id="stOkx6Ju9ydZygOVj5nS-50" value="&lt;font style=&quot;font-size: 28px;&quot;&gt;1&lt;/font&gt;" style="ellipse;whiteSpace=wrap;html=1;aspect=fixed;fontFamily=Times New Roman;fontSize=26;fontColor=#000000;" vertex="1" parent="1">
          <mxGeometry x="1170" y="1554" width="100" height="100" as="geometry" />
        </mxCell>
        <mxCell id="stOkx6Ju9ydZygOVj5nS-51" value="data !=cardToSendClients" style="rhombus;whiteSpace=wrap;html=1;fontSize=26;fontFamily=Times New Roman;" vertex="1" parent="1">
          <mxGeometry x="249" y="1310" width="480" height="120" as="geometry" />
        </mxCell>
        <mxCell id="stOkx6Ju9ydZygOVj5nS-52" value="" style="endArrow=open;html=1;rounded=0;entryX=0.5;entryY=0;entryDx=0;entryDy=0;endFill=0;endSize=16;" edge="1" parent="1" target="stOkx6Ju9ydZygOVj5nS-53">
          <mxGeometry width="50" height="50" relative="1" as="geometry">
            <mxPoint x="730" y="1371" as="sourcePoint" />
            <mxPoint x="909" y="1485" as="targetPoint" />
            <Array as="points">
              <mxPoint x="960" y="1370" />
            </Array>
          </mxGeometry>
        </mxCell>
        <mxCell id="stOkx6Ju9ydZygOVj5nS-53" value="&lt;font style=&quot;font-size: 28px;&quot;&gt;1&lt;/font&gt;" style="ellipse;whiteSpace=wrap;html=1;aspect=fixed;fontFamily=Times New Roman;fontSize=26;fontColor=#000000;" vertex="1" parent="1">
          <mxGeometry x="910" y="1397" width="100" height="100" as="geometry" />
        </mxCell>
        <mxCell id="stOkx6Ju9ydZygOVj5nS-54" value="Нет" style="text;html=1;align=center;verticalAlign=middle;resizable=0;points=[];autosize=1;strokeColor=none;fillColor=none;fontFamily=Times New Roman;fontSize=28;" vertex="1" parent="1">
          <mxGeometry x="735" y="1330" width="70" height="50" as="geometry" />
        </mxCell>
        <mxCell id="stOkx6Ju9ydZygOVj5nS-55" value="12" style="text;html=1;align=center;verticalAlign=middle;resizable=0;points=[];autosize=1;strokeColor=none;fillColor=none;fontFamily=Times New Roman;fontSize=26;" vertex="1" parent="1">
          <mxGeometry x="980" y="837" width="50" height="40" as="geometry" />
        </mxCell>
        <mxCell id="stOkx6Ju9ydZygOVj5nS-56" value="13" style="text;html=1;align=center;verticalAlign=middle;resizable=0;points=[];autosize=1;strokeColor=none;fillColor=none;fontFamily=Times New Roman;fontSize=26;" vertex="1" parent="1">
          <mxGeometry x="980" y="1000" width="50" height="40" as="geometry" />
        </mxCell>
        <mxCell id="stOkx6Ju9ydZygOVj5nS-57" value="14" style="text;html=1;align=center;verticalAlign=middle;resizable=0;points=[];autosize=1;strokeColor=none;fillColor=none;fontFamily=Times New Roman;fontSize=26;" vertex="1" parent="1">
          <mxGeometry x="980" y="1150" width="50" height="40" as="geometry" />
        </mxCell>
        <mxCell id="stOkx6Ju9ydZygOVj5nS-58" value="15" style="text;html=1;align=center;verticalAlign=middle;resizable=0;points=[];autosize=1;strokeColor=none;fillColor=none;fontFamily=Times New Roman;fontSize=26;" vertex="1" parent="1">
          <mxGeometry x="1540" y="1170" width="50" height="40" as="geometry" />
        </mxCell>
        <mxCell id="stOkx6Ju9ydZygOVj5nS-59" value="16" style="text;html=1;align=center;verticalAlign=middle;resizable=0;points=[];autosize=1;strokeColor=none;fillColor=none;fontFamily=Times New Roman;fontSize=26;" vertex="1" parent="1">
          <mxGeometry x="1540" y="1318" width="50" height="40" as="geometry" />
        </mxCell>
        <mxCell id="stOkx6Ju9ydZygOVj5nS-60" style="edgeStyle=orthogonalEdgeStyle;rounded=0;orthogonalLoop=1;jettySize=auto;html=1;exitX=0.5;exitY=1;exitDx=0;exitDy=0;endArrow=open;endFill=0;startSize=6;endSize=16;entryX=0.5;entryY=0;entryDx=0;entryDy=0;" edge="1" parent="1" source="9Zyu01QpsSExNCl8jZLK-54" target="stOkx6Ju9ydZygOVj5nS-61">
          <mxGeometry relative="1" as="geometry">
            <mxPoint x="2365" y="222" as="targetPoint" />
            <mxPoint x="2761" y="370" as="sourcePoint" />
          </mxGeometry>
        </mxCell>
        <mxCell id="stOkx6Ju9ydZygOVj5nS-61" value="currentPl == 1" style="rhombus;whiteSpace=wrap;html=1;fontSize=26;fontFamily=Times New Roman;" vertex="1" parent="1">
          <mxGeometry x="2125" y="234" width="480" height="120" as="geometry" />
        </mxCell>
        <mxCell id="stOkx6Ju9ydZygOVj5nS-62" value="&lt;div style=&quot;margin-top: 0px; margin-bottom: 0px; font-size: 26px;&quot;&gt;currentPl = 2&lt;/div&gt;" style="rounded=0;whiteSpace=wrap;html=1;fontFamily=Times New Roman;fontSize=26;" vertex="1" parent="1">
          <mxGeometry x="2125" y="404" width="480" height="100" as="geometry" />
        </mxCell>
        <mxCell id="stOkx6Ju9ydZygOVj5nS-63" value="" style="endArrow=open;html=1;rounded=0;endFill=0;endSize=16;entryX=0.5;entryY=0;entryDx=0;entryDy=0;exitX=1;exitY=0.5;exitDx=0;exitDy=0;" edge="1" parent="1" source="stOkx6Ju9ydZygOVj5nS-61">
          <mxGeometry width="50" height="50" relative="1" as="geometry">
            <mxPoint x="2615" y="284" as="sourcePoint" />
            <mxPoint x="2895" y="404.0000000000002" as="targetPoint" />
            <Array as="points">
              <mxPoint x="2895" y="295" />
            </Array>
          </mxGeometry>
        </mxCell>
        <mxCell id="stOkx6Ju9ydZygOVj5nS-64" value="" style="endArrow=open;html=1;rounded=0;exitX=0.5;exitY=1;exitDx=0;exitDy=0;endFill=0;endSize=16;entryX=0.5;entryY=0;entryDx=0;entryDy=0;" edge="1" parent="1" source="stOkx6Ju9ydZygOVj5nS-61" target="stOkx6Ju9ydZygOVj5nS-62">
          <mxGeometry width="50" height="50" relative="1" as="geometry">
            <mxPoint x="2615" y="305.4999999999998" as="sourcePoint" />
            <mxPoint x="2905" y="414" as="targetPoint" />
            <Array as="points" />
          </mxGeometry>
        </mxCell>
        <mxCell id="stOkx6Ju9ydZygOVj5nS-65" value="cpl == 2" style="rhombus;whiteSpace=wrap;html=1;fontSize=26;fontFamily=Times New Roman;" vertex="1" parent="1">
          <mxGeometry x="2655" y="404" width="480" height="120" as="geometry" />
        </mxCell>
        <mxCell id="stOkx6Ju9ydZygOVj5nS-66" value="&lt;div style=&quot;margin-top: 0px; margin-bottom: 0px; font-size: 26px;&quot;&gt;currentPl = 1&lt;/div&gt;" style="rounded=0;whiteSpace=wrap;html=1;fontFamily=Times New Roman;fontSize=26;" vertex="1" parent="1">
          <mxGeometry x="2655" y="575" width="480" height="100" as="geometry" />
        </mxCell>
        <mxCell id="stOkx6Ju9ydZygOVj5nS-67" value="" style="endArrow=open;html=1;rounded=0;endFill=0;endSize=16;entryX=0.5;entryY=0;entryDx=0;entryDy=0;exitX=0.5;exitY=1;exitDx=0;exitDy=0;" edge="1" parent="1" source="stOkx6Ju9ydZygOVj5nS-65" target="stOkx6Ju9ydZygOVj5nS-66">
          <mxGeometry width="50" height="50" relative="1" as="geometry">
            <mxPoint x="2615" y="304" as="sourcePoint" />
            <mxPoint x="2905" y="414.0000000000002" as="targetPoint" />
            <Array as="points">
              <mxPoint x="2895" y="554" />
            </Array>
          </mxGeometry>
        </mxCell>
        <mxCell id="stOkx6Ju9ydZygOVj5nS-68" value="Да" style="text;html=1;align=center;verticalAlign=middle;resizable=0;points=[];autosize=1;strokeColor=none;fillColor=none;fontFamily=Times New Roman;fontSize=28;" vertex="1" parent="1">
          <mxGeometry x="2315" y="347" width="60" height="50" as="geometry" />
        </mxCell>
        <mxCell id="stOkx6Ju9ydZygOVj5nS-69" value="Да" style="text;html=1;align=center;verticalAlign=middle;resizable=0;points=[];autosize=1;strokeColor=none;fillColor=none;fontFamily=Times New Roman;fontSize=28;" vertex="1" parent="1">
          <mxGeometry x="2835" y="514" width="60" height="50" as="geometry" />
        </mxCell>
        <mxCell id="stOkx6Ju9ydZygOVj5nS-70" value="Нет" style="text;html=1;align=center;verticalAlign=middle;resizable=0;points=[];autosize=1;strokeColor=none;fillColor=none;fontFamily=Times New Roman;fontSize=28;" vertex="1" parent="1">
          <mxGeometry x="2615" y="254" width="70" height="50" as="geometry" />
        </mxCell>
        <mxCell id="stOkx6Ju9ydZygOVj5nS-71" value="" style="endArrow=open;html=1;rounded=0;endFill=0;endSize=16;exitX=0;exitY=0.5;exitDx=0;exitDy=0;" edge="1" parent="1" source="stOkx6Ju9ydZygOVj5nS-65">
          <mxGeometry width="50" height="50" relative="1" as="geometry">
            <mxPoint x="2845" y="753" as="sourcePoint" />
            <mxPoint x="2622" y="840" as="targetPoint" />
            <Array as="points">
              <mxPoint x="2622" y="464" />
              <mxPoint x="2622" y="580" />
              <mxPoint x="2622" y="724" />
            </Array>
          </mxGeometry>
        </mxCell>
        <mxCell id="stOkx6Ju9ydZygOVj5nS-73" value="Нет" style="text;html=1;align=center;verticalAlign=middle;resizable=0;points=[];autosize=1;strokeColor=none;fillColor=none;fontFamily=Times New Roman;fontSize=28;" vertex="1" parent="1">
          <mxGeometry x="2599" y="424" width="70" height="50" as="geometry" />
        </mxCell>
        <mxCell id="stOkx6Ju9ydZygOVj5nS-76" value="17" style="text;html=1;align=center;verticalAlign=middle;resizable=0;points=[];autosize=1;strokeColor=none;fillColor=none;fontFamily=Times New Roman;fontSize=26;" vertex="1" parent="1">
          <mxGeometry x="2120" y="229" width="50" height="40" as="geometry" />
        </mxCell>
        <mxCell id="stOkx6Ju9ydZygOVj5nS-79" value="21" style="text;html=1;align=center;verticalAlign=middle;resizable=0;points=[];autosize=1;strokeColor=none;fillColor=none;fontFamily=Times New Roman;fontSize=26;" vertex="1" parent="1">
          <mxGeometry x="2685" y="532" width="50" height="40" as="geometry" />
        </mxCell>
        <mxCell id="stOkx6Ju9ydZygOVj5nS-80" value="&lt;div style=&quot;margin-top: 0px; margin-bottom: 0px; font-size: 26px;&quot;&gt;players[0].count=enCards&lt;/div&gt;" style="rounded=0;whiteSpace=wrap;html=1;fontFamily=Times New Roman;fontSize=26;" vertex="1" parent="1">
          <mxGeometry x="2125" y="550" width="480" height="100" as="geometry" />
        </mxCell>
        <mxCell id="stOkx6Ju9ydZygOVj5nS-81" value="&lt;div style=&quot;margin-top: 0px; margin-bottom: 0px; font-size: 26px;&quot;&gt;players[1].count=enCards&lt;/div&gt;" style="rounded=0;whiteSpace=wrap;html=1;fontFamily=Times New Roman;fontSize=26;" vertex="1" parent="1">
          <mxGeometry x="2655" y="718" width="480" height="100" as="geometry" />
        </mxCell>
        <mxCell id="stOkx6Ju9ydZygOVj5nS-82" value="" style="endArrow=none;html=1;rounded=0;entryX=0.5;entryY=0;entryDx=0;entryDy=0;exitX=0.5;exitY=1;exitDx=0;exitDy=0;" edge="1" parent="1" source="stOkx6Ju9ydZygOVj5nS-66" target="stOkx6Ju9ydZygOVj5nS-81">
          <mxGeometry width="50" height="50" relative="1" as="geometry">
            <mxPoint x="2502" y="580" as="sourcePoint" />
            <mxPoint x="2552" y="530" as="targetPoint" />
          </mxGeometry>
        </mxCell>
        <mxCell id="stOkx6Ju9ydZygOVj5nS-83" value="" style="endArrow=open;html=1;rounded=0;endFill=0;endSize=16;exitX=0.5;exitY=1;exitDx=0;exitDy=0;" edge="1" parent="1" source="stOkx6Ju9ydZygOVj5nS-81">
          <mxGeometry width="50" height="50" relative="1" as="geometry">
            <mxPoint x="2555" y="703" as="sourcePoint" />
            <mxPoint x="2522" y="909" as="targetPoint" />
            <Array as="points">
              <mxPoint x="2895" y="840" />
              <mxPoint x="2622" y="840" />
              <mxPoint x="2522" y="840" />
            </Array>
          </mxGeometry>
        </mxCell>
        <mxCell id="stOkx6Ju9ydZygOVj5nS-84" value="" style="endArrow=none;html=1;rounded=0;entryX=0.5;entryY=1;entryDx=0;entryDy=0;exitX=0.5;exitY=0;exitDx=0;exitDy=0;" edge="1" parent="1" source="stOkx6Ju9ydZygOVj5nS-80" target="stOkx6Ju9ydZygOVj5nS-62">
          <mxGeometry width="50" height="50" relative="1" as="geometry">
            <mxPoint x="2442" y="590" as="sourcePoint" />
            <mxPoint x="2492" y="540" as="targetPoint" />
          </mxGeometry>
        </mxCell>
        <mxCell id="stOkx6Ju9ydZygOVj5nS-85" value="" style="endArrow=none;html=1;rounded=0;exitX=0.5;exitY=1;exitDx=0;exitDy=0;entryX=0.5;entryY=0;entryDx=0;entryDy=0;" edge="1" parent="1" source="stOkx6Ju9ydZygOVj5nS-80">
          <mxGeometry width="50" height="50" relative="1" as="geometry">
            <mxPoint x="2442" y="590" as="sourcePoint" />
            <mxPoint x="2365" y="880" as="targetPoint" />
          </mxGeometry>
        </mxCell>
        <mxCell id="stOkx6Ju9ydZygOVj5nS-87" value="18" style="text;html=1;align=center;verticalAlign=middle;resizable=0;points=[];autosize=1;strokeColor=none;fillColor=none;fontFamily=Times New Roman;fontSize=26;" vertex="1" parent="1">
          <mxGeometry x="2120" y="360" width="50" height="40" as="geometry" />
        </mxCell>
        <mxCell id="stOkx6Ju9ydZygOVj5nS-88" value="19" style="text;html=1;align=center;verticalAlign=middle;resizable=0;points=[];autosize=1;strokeColor=none;fillColor=none;fontFamily=Times New Roman;fontSize=26;" vertex="1" parent="1">
          <mxGeometry x="2120" y="514" width="50" height="40" as="geometry" />
        </mxCell>
        <mxCell id="stOkx6Ju9ydZygOVj5nS-89" value="20" style="text;html=1;align=center;verticalAlign=middle;resizable=0;points=[];autosize=1;strokeColor=none;fillColor=none;fontFamily=Times New Roman;fontSize=26;" vertex="1" parent="1">
          <mxGeometry x="2685" y="404" width="50" height="40" as="geometry" />
        </mxCell>
        <mxCell id="stOkx6Ju9ydZygOVj5nS-91" value="22" style="text;html=1;align=center;verticalAlign=middle;resizable=0;points=[];autosize=1;strokeColor=none;fillColor=none;fontFamily=Times New Roman;fontSize=26;" vertex="1" parent="1">
          <mxGeometry x="2685" y="678" width="50" height="40" as="geometry" />
        </mxCell>
        <mxCell id="nqvENcmuZDM20KbpsJ3p-1" value="&lt;font face=&quot;Times New Roman&quot;&gt;&lt;span style=&quot;font-size: 28px;&quot;&gt;&lt;br&gt;A1&lt;/span&gt;&lt;/font&gt;" style="shape=loopLimit;whiteSpace=wrap;html=1;size=42;direction=west;" vertex="1" parent="1">
          <mxGeometry x="2125" y="949.5" width="480" height="101" as="geometry" />
        </mxCell>
        <mxCell id="nqvENcmuZDM20KbpsJ3p-2" value="23" style="text;html=1;align=center;verticalAlign=middle;resizable=0;points=[];autosize=1;strokeColor=none;fillColor=none;fontFamily=Times New Roman;fontSize=28;" vertex="1" parent="1">
          <mxGeometry x="2125" y="909" width="50" height="50" as="geometry" />
        </mxCell>
        <mxCell id="U5MXIK-24vMOK5HsXXuc-1" parent="0" />
        <mxCell id="U5MXIK-24vMOK5HsXXuc-10" style="vsdxID=56;edgeStyle=none;startArrow=none;endArrow=none;startSize=5;endSize=5;strokeColor=#000000;spacingTop=0;spacingBottom=0;spacingLeft=0;spacingRight=0;verticalAlign=middle;html=1;labelBackgroundColor=#ffffff;rounded=0;" parent="U5MXIK-24vMOK5HsXXuc-1" edge="1">
          <mxGeometry relative="1" as="geometry">
            <mxPoint as="offset" />
            <Array as="points" />
            <mxPoint x="119" y="40" as="sourcePoint" />
            <mxPoint x="3261" y="40" as="targetPoint" />
          </mxGeometry>
        </mxCell>
        <mxCell id="U5MXIK-24vMOK5HsXXuc-11" style="vsdxID=55;edgeStyle=none;startArrow=none;endArrow=none;startSize=5;endSize=5;strokeColor=#000000;spacingTop=0;spacingBottom=0;spacingLeft=0;spacingRight=0;verticalAlign=middle;html=1;labelBackgroundColor=#ffffff;rounded=0;" parent="U5MXIK-24vMOK5HsXXuc-1" edge="1">
          <mxGeometry relative="1" as="geometry">
            <mxPoint x="8" as="offset" />
            <Array as="points" />
            <mxPoint x="120" y="2301" as="sourcePoint" />
            <mxPoint x="120" y="39" as="targetPoint" />
          </mxGeometry>
        </mxCell>
        <mxCell id="U5MXIK-24vMOK5HsXXuc-12" style="vsdxID=54;edgeStyle=none;startArrow=none;endArrow=none;startSize=5;endSize=5;strokeColor=#000000;spacingTop=0;spacingBottom=0;spacingLeft=0;spacingRight=0;verticalAlign=middle;html=1;labelBackgroundColor=#ffffff;rounded=0;" parent="U5MXIK-24vMOK5HsXXuc-1" edge="1">
          <mxGeometry relative="1" as="geometry">
            <mxPoint as="offset" />
            <Array as="points" />
            <mxPoint x="119" y="2300" as="sourcePoint" />
            <mxPoint x="3261" y="2300" as="targetPoint" />
          </mxGeometry>
        </mxCell>
        <mxCell id="U5MXIK-24vMOK5HsXXuc-13" style="vsdxID=52;edgeStyle=none;startArrow=none;endArrow=none;startSize=5;endSize=5;strokeColor=#000000;spacingTop=0;spacingBottom=0;spacingLeft=0;spacingRight=0;verticalAlign=middle;html=1;labelBackgroundColor=#ffffff;rounded=0;" parent="U5MXIK-24vMOK5HsXXuc-1" edge="1">
          <mxGeometry relative="1" as="geometry">
            <mxPoint x="8" as="offset" />
            <Array as="points" />
            <mxPoint x="3260" y="2300" as="sourcePoint" />
            <mxPoint x="3260" y="39" as="targetPoint" />
          </mxGeometry>
        </mxCell>
        <mxCell id="U5MXIK-24vMOK5HsXXuc-90" value="Flowchart" parent="0" />
        <mxCell id="U5MXIK-24vMOK5HsXXuc-91" value="Блок-схема" parent="0" />
        <mxCell id="U5MXIK-24vMOK5HsXXuc-118" value="Connector" parent="0" />
        <mxCell id="flblZkYbyNQ9tiGkdh4v-10" value="&lt;p style=&quot;margin-left: 0 ; margin-right: 0 ; margin-top: 0px ; margin-bottom: 0px ; text-indent: 0 ; direction: ltr&quot;&gt;&lt;font style=&quot;font-family: &amp;quot;times new roman&amp;quot; ; color: rgb(0 , 0 , 0) ; direction: ltr ; letter-spacing: 0px ; line-height: 140% ; opacity: 1&quot; size=&quot;1&quot;&gt;&lt;i&gt;Руковод.&lt;/i&gt;&lt;/font&gt;&lt;font style=&quot;font-size: 14px ; font-family: &amp;quot;times new roman&amp;quot; ; color: #000000 ; direction: ltr ; letter-spacing: 0px ; line-height: 140% ; opacity: 1&quot;&gt;&lt;br&gt;&lt;/font&gt;&lt;/p&gt;" style="verticalAlign=middle;align=left;vsdxID=41;fillColor=none;gradientColor=none;shape=stencil(nZBLDoAgDERP0z3SIyjew0SURgSD+Lu9kMZoXLhwN9O+tukAlrNpJg1SzDH4QW/URgNYgZTkjA4UkwJUgGXng+6DX1zLfmoymdXo17xh5zmRJ6Q42BWCfc2oJfdAr+Yv+AP9Cb7OJ3H/2JG1HNGz/84klThPVCc=);strokeColor=none;labelBackgroundColor=none;rounded=0;html=1;whiteSpace=wrap;strokeWidth=1;" parent="U5MXIK-24vMOK5HsXXuc-118" vertex="1">
          <mxGeometry x="2560" y="2200" width="70" height="20" as="geometry" />
        </mxCell>
        <mxCell id="flblZkYbyNQ9tiGkdh4v-13" value="&lt;p style=&quot;margin-left: 0 ; margin-right: 0 ; margin-top: 0px ; margin-bottom: 0px ; text-indent: 0 ; direction: ltr&quot;&gt;&lt;font style=&quot;font-family: &amp;#34;times new roman&amp;#34; ; color: rgb(0 , 0 , 0) ; direction: ltr ; letter-spacing: 0px ; line-height: 140% ; opacity: 1&quot; size=&quot;1&quot;&gt;&lt;i&gt;Лист&lt;/i&gt;&lt;/font&gt;&lt;font style=&quot;font-size: 12px ; font-family: &amp;#34;times new roman&amp;#34; ; color: #000000 ; direction: ltr ; letter-spacing: 0px ; line-height: 140% ; opacity: 1&quot;&gt;&lt;br&gt;&lt;/font&gt;&lt;/p&gt;" style="verticalAlign=middle;align=center;vsdxID=45;fillColor=none;gradientColor=none;shape=stencil(nZBLDoAgDERP0z3SIyjew0SURgSD+Lu9kMZoXLhwN9O+tukAlrNpJg1SzDH4QW/URgNYgZTkjA4UkwJUgGXng+6DX1zLfmoymdXo17xh5zmRJ6Q42BWCfc2oJfdAr+Yv+AP9Cb7OJ3H/2JG1HNGz/84klThPVCc=);strokeColor=none;labelBackgroundColor=none;rounded=0;html=1;whiteSpace=wrap;strokeWidth=1;" parent="U5MXIK-24vMOK5HsXXuc-118" vertex="1">
          <mxGeometry x="2590" y="2160" width="40" height="20" as="geometry" />
        </mxCell>
        <mxCell id="flblZkYbyNQ9tiGkdh4v-15" value="&lt;p style=&quot;margin-left: 0 ; margin-right: 0 ; margin-top: 0px ; margin-bottom: 0px ; text-indent: 0 ; direction: ltr&quot;&gt;&lt;font style=&quot;font-family: &amp;#34;times new roman&amp;#34; ; color: rgb(0 , 0 , 0) ; direction: ltr ; letter-spacing: 0px ; line-height: 140% ; opacity: 1&quot; size=&quot;1&quot;&gt;&lt;i&gt;№ докум.&lt;/i&gt;&lt;/font&gt;&lt;font style=&quot;font-size: 12px ; font-family: &amp;#34;times new roman&amp;#34; ; color: #000000 ; direction: ltr ; letter-spacing: 0px ; line-height: 140% ; opacity: 1&quot;&gt;&lt;br&gt;&lt;/font&gt;&lt;/p&gt;" style="verticalAlign=middle;align=center;vsdxID=45;fillColor=none;gradientColor=none;shape=stencil(nZBLDoAgDERP0z3SIyjew0SURgSD+Lu9kMZoXLhwN9O+tukAlrNpJg1SzDH4QW/URgNYgZTkjA4UkwJUgGXng+6DX1zLfmoymdXo17xh5zmRJ6Q42BWCfc2oJfdAr+Yv+AP9Cb7OJ3H/2JG1HNGz/84klThPVCc=);strokeColor=none;labelBackgroundColor=none;rounded=0;html=1;whiteSpace=wrap;strokeWidth=1;" parent="U5MXIK-24vMOK5HsXXuc-118" vertex="1">
          <mxGeometry x="2630" y="2160" width="90" height="20" as="geometry" />
        </mxCell>
        <mxCell id="flblZkYbyNQ9tiGkdh4v-18" value="&lt;p style=&quot;margin-left: 0 ; margin-right: 0 ; margin-top: 0px ; margin-bottom: 0px ; text-indent: 0 ; direction: ltr&quot;&gt;&lt;font style=&quot;font-family: &amp;#34;times new roman&amp;#34; ; color: rgb(0 , 0 , 0) ; direction: ltr ; letter-spacing: 0px ; line-height: 140% ; opacity: 1&quot; size=&quot;1&quot;&gt;&lt;i&gt;Дата&lt;/i&gt;&lt;/font&gt;&lt;font style=&quot;font-size: 12px ; font-family: &amp;#34;times new roman&amp;#34; ; color: #000000 ; direction: ltr ; letter-spacing: 0px ; line-height: 140% ; opacity: 1&quot;&gt;&lt;br&gt;&lt;/font&gt;&lt;/p&gt;" style="verticalAlign=middle;align=center;vsdxID=45;fillColor=none;gradientColor=none;shape=stencil(nZBLDoAgDERP0z3SIyjew0SURgSD+Lu9kMZoXLhwN9O+tukAlrNpJg1SzDH4QW/URgNYgZTkjA4UkwJUgGXng+6DX1zLfmoymdXo17xh5zmRJ6Q42BWCfc2oJfdAr+Yv+AP9Cb7OJ3H/2JG1HNGz/84klThPVCc=);strokeColor=none;labelBackgroundColor=none;rounded=0;html=1;whiteSpace=wrap;strokeWidth=1;" parent="U5MXIK-24vMOK5HsXXuc-118" vertex="1">
          <mxGeometry x="2780" y="2160" width="40" height="20" as="geometry" />
        </mxCell>
        <mxCell id="U5MXIK-24vMOK5HsXXuc-119" value="Выноска" parent="0" />
      </root>
    </mxGraphModel>
  </diagram>
</mxfile>
